<?xml version="1.0" encoding="UTF-8"?>
<!DOCTYPE svg PUBLIC "-//W3C//DTD SVG 1.1//EN" "http://www.w3.org/Graphics/SVG/1.1/DTD/svg11.dtd">
<!-- Creator: CorelDRAW 2017 -->
<svg xmlns="http://www.w3.org/2000/svg" xml:space="preserve" width="1395px" height="402px" version="1.1" style="shape-rendering:geometricPrecision; text-rendering:geometricPrecision; image-rendering:optimizeQuality; fill-rule:evenodd; clip-rule:evenodd"
viewBox="0 0 1485.52 428.28"
 xmlns:xlink="http://www.w3.org/1999/xlink">
 <defs>
  <style type="text/css">
   <![CDATA[
    .fil6 {fill:#009221}
    .fil2 {fill:#4C7FE6}
    .fil5 {fill:#B164C8}
    .fil4 {fill:#D15166}
    .fil7 {fill:#F7D06E}
    .fil3 {fill:#FF7F00}
    .fil0 {fill:black;fill-rule:nonzero}
    .fil1 {fill:#990000;fill-rule:nonzero}
   ]]>
  </style>
 </defs>
 <g id="Logo_x0020_bunt">
  <metadata id="CorelCorpID_0Corel-Layer"/>
  <path id="für_x0020_die_x0020_Uni_x0020_Heidelberg" class="fil0" d="M366.3 310.93c0,0.23 -0.05,0.42 -0.15,0.59 -0.1,0.18 -0.27,0.31 -0.5,0.41 -0.25,0.1 -0.57,0.17 -0.95,0.23 -0.41,0.06 -0.89,0.08 -1.45,0.08 -0.59,0 -1.08,-0.02 -1.47,-0.08 -0.4,-0.06 -0.72,-0.13 -0.98,-0.23 -0.24,-0.1 -0.43,-0.23 -0.55,-0.41 -0.1,-0.17 -0.16,-0.37 -0.16,-0.59l0 -5.06c-2,2.18 -4.08,3.87 -6.23,5.08 -2.16,1.21 -4.51,1.81 -7.08,1.81 -2.78,0 -5.16,-0.54 -7.12,-1.62 -1.98,-1.09 -3.58,-2.56 -4.81,-4.4 -1.21,-1.85 -2.1,-4.01 -2.67,-6.51 -0.56,-2.49 -0.85,-5.12 -0.85,-7.87 0,-3.28 0.35,-6.24 1.06,-8.86 0.7,-2.64 1.74,-4.89 3.13,-6.75 1.37,-1.86 3.08,-3.29 5.13,-4.28 2.03,-1 4.39,-1.5 7.07,-1.5 2.22,0 4.25,0.49 6.1,1.45 1.85,0.98 3.66,2.41 5.47,4.3l0 -22.05c0,-0.21 0.04,-0.39 0.14,-0.58 0.1,-0.19 0.29,-0.32 0.58,-0.42 0.27,-0.1 0.63,-0.19 1.06,-0.26 0.45,-0.07 1,-0.1 1.68,-0.1 0.7,0 1.28,0.03 1.73,0.1 0.45,0.07 0.81,0.16 1.05,0.26 0.26,0.1 0.45,0.23 0.58,0.42 0.13,0.19 0.19,0.37 0.19,0.58l0 56.26zm-7.01 -26.78c-1.88,-2.35 -3.7,-4.14 -5.46,-5.37 -1.76,-1.22 -3.59,-1.84 -5.49,-1.84 -1.77,0 -3.28,0.41 -4.52,1.27 -1.24,0.85 -2.23,1.96 -3.01,3.34 -0.76,1.37 -1.33,2.94 -1.67,4.69 -0.36,1.74 -0.54,3.52 -0.54,5.32 0,1.92 0.15,3.79 0.45,5.63 0.29,1.83 0.81,3.46 1.53,4.89 0.73,1.42 1.7,2.56 2.91,3.43 1.2,0.85 2.73,1.28 4.55,1.28 0.92,0 1.81,-0.13 2.68,-0.37 0.85,-0.26 1.73,-0.68 2.62,-1.27 0.9,-0.59 1.85,-1.36 2.83,-2.31 0.98,-0.94 2.02,-2.09 3.12,-3.48l0 -15.21z"/>
  <path id="1" class="fil0" d="M411.59 290.25c0,1.1 -0.28,1.87 -0.83,2.35 -0.54,0.46 -1.18,0.69 -1.89,0.69l-24.98 0c0,2.12 0.22,4.03 0.64,5.71 0.42,1.71 1.12,3.16 2.12,4.37 0.98,1.22 2.26,2.14 3.83,2.79 1.59,0.65 3.52,0.98 5.8,0.98 1.8,0 3.42,-0.14 4.82,-0.45 1.41,-0.29 2.64,-0.62 3.66,-0.98 1.03,-0.36 1.88,-0.69 2.54,-0.98 0.67,-0.3 1.16,-0.45 1.5,-0.45 0.2,0 0.38,0.05 0.54,0.15 0.14,0.1 0.27,0.24 0.34,0.44 0.09,0.19 0.16,0.47 0.2,0.81 0.05,0.36 0.06,0.78 0.06,1.29 0,0.36 -0.01,0.67 -0.04,0.95 -0.03,0.26 -0.06,0.5 -0.1,0.7 -0.05,0.22 -0.12,0.41 -0.22,0.58 -0.1,0.16 -0.22,0.32 -0.37,0.48 -0.16,0.16 -0.62,0.4 -1.37,0.75 -0.77,0.36 -1.75,0.69 -2.96,1.04 -1.21,0.33 -2.61,0.63 -4.2,0.89 -1.58,0.27 -3.27,0.4 -5.07,0.4 -3.14,0 -5.86,-0.43 -8.21,-1.31 -2.35,-0.86 -4.33,-2.16 -5.93,-3.88 -1.6,-1.73 -2.81,-3.88 -3.62,-6.47 -0.82,-2.59 -1.23,-5.6 -1.23,-9.05 0,-3.26 0.42,-6.2 1.27,-8.81 0.84,-2.6 2.06,-4.82 3.65,-6.64 1.59,-1.81 3.52,-3.2 5.77,-4.18 2.25,-0.96 4.77,-1.45 7.56,-1.45 2.98,0 5.52,0.47 7.61,1.44 2.11,0.95 3.83,2.25 5.18,3.86 1.34,1.62 2.34,3.52 2.97,5.71 0.64,2.18 0.96,4.52 0.96,7l0 1.27zm-7.01 -2.06c0.08,-3.67 -0.73,-6.55 -2.44,-8.64 -1.72,-2.09 -4.24,-3.13 -7.6,-3.13 -1.73,0 -3.25,0.31 -4.55,0.96 -1.29,0.65 -2.38,1.52 -3.26,2.6 -0.88,1.07 -1.55,2.32 -2.03,3.74 -0.48,1.42 -0.75,2.91 -0.81,4.47l20.69 0z"/>
  <path id="2" class="fil0" d="M444.52 275.35c0,0.62 -0.02,1.14 -0.05,1.56 -0.03,0.42 -0.08,0.75 -0.17,0.99 -0.07,0.25 -0.19,0.42 -0.32,0.55 -0.11,0.13 -0.29,0.19 -0.52,0.19 -0.23,0 -0.5,-0.06 -0.82,-0.19 -0.33,-0.13 -0.69,-0.26 -1.1,-0.37 -0.4,-0.13 -0.86,-0.25 -1.37,-0.36 -0.5,-0.12 -1.05,-0.18 -1.64,-0.18 -0.71,0 -1.4,0.15 -2.08,0.42 -0.66,0.29 -1.38,0.75 -2.12,1.41 -0.75,0.65 -1.53,1.52 -2.35,2.59 -0.81,1.08 -1.71,2.39 -2.7,3.95l0 25.02c0,0.23 -0.05,0.42 -0.17,0.58 -0.11,0.14 -0.29,0.29 -0.55,0.4 -0.26,0.1 -0.6,0.19 -1.06,0.25 -0.45,0.06 -1.03,0.08 -1.74,0.08 -0.69,0 -1.25,-0.02 -1.7,-0.08 -0.46,-0.06 -0.82,-0.15 -1.08,-0.25 -0.27,-0.11 -0.46,-0.26 -0.56,-0.4 -0.1,-0.16 -0.15,-0.35 -0.15,-0.58l0 -38.05c0,-0.23 0.05,-0.41 0.13,-0.57 0.09,-0.15 0.25,-0.29 0.51,-0.42 0.26,-0.13 0.58,-0.22 0.98,-0.26 0.39,-0.04 0.92,-0.06 1.57,-0.06 0.62,0 1.14,0.02 1.55,0.06 0.41,0.04 0.73,0.13 0.96,0.26 0.22,0.13 0.39,0.27 0.49,0.42 0.09,0.16 0.15,0.34 0.15,0.57l0 5.54c1.03,-1.53 2.02,-2.77 2.92,-3.73 0.93,-0.96 1.79,-1.72 2.6,-2.27 0.82,-0.55 1.63,-0.92 2.42,-1.14 0.81,-0.21 1.62,-0.31 2.44,-0.31 0.36,0 0.78,0.01 1.24,0.05 0.46,0.05 0.95,0.13 1.46,0.23 0.5,0.12 0.96,0.25 1.37,0.39 0.4,0.15 0.69,0.28 0.86,0.42 0.18,0.15 0.29,0.28 0.34,0.41 0.05,0.12 0.11,0.28 0.15,0.47 0.05,0.2 0.08,0.49 0.09,0.87 0.02,0.39 0.02,0.89 0.02,1.54z"/>
  <path id="3" class="fil0" d="M513.89 291.76c0,3.32 -0.49,6.29 -1.45,8.9 -0.97,2.6 -2.37,4.81 -4.17,6.61 -1.81,1.8 -4,3.17 -6.59,4.1 -2.59,0.93 -5.53,1.39 -8.83,1.39 -3.02,0 -5.76,-0.43 -8.24,-1.31 -2.48,-0.86 -4.6,-2.16 -6.37,-3.86 -1.78,-1.71 -3.15,-3.84 -4.1,-6.41 -0.97,-2.55 -1.44,-5.51 -1.44,-8.87l0 -33.92c0,-0.23 0.06,-0.44 0.17,-0.59 0.12,-0.18 0.3,-0.31 0.59,-0.41 0.29,-0.1 0.65,-0.19 1.11,-0.26 0.45,-0.07 1.04,-0.1 1.79,-0.1 0.68,0 1.26,0.03 1.73,0.1 0.49,0.07 0.87,0.16 1.13,0.26 0.27,0.1 0.46,0.23 0.57,0.41 0.12,0.15 0.18,0.36 0.18,0.59l0 33.03c0,2.52 0.3,4.74 0.92,6.62 0.62,1.89 1.52,3.46 2.68,4.71 1.16,1.26 2.57,2.2 4.22,2.83 1.63,0.64 3.47,0.95 5.53,0.95 2.1,0 3.97,-0.3 5.62,-0.92 1.64,-0.62 3.02,-1.56 4.16,-2.8 1.14,-1.24 2.01,-2.77 2.61,-4.6 0.61,-1.83 0.91,-3.97 0.91,-6.42l0 -33.4c0,-0.23 0.06,-0.44 0.17,-0.59 0.12,-0.18 0.31,-0.31 0.6,-0.41 0.29,-0.1 0.66,-0.19 1.12,-0.26 0.48,-0.07 1.06,-0.1 1.78,-0.1 0.67,0 1.24,0.03 1.71,0.1 0.46,0.07 0.84,0.16 1.1,0.26 0.27,0.1 0.47,0.23 0.6,0.41 0.13,0.15 0.19,0.36 0.19,0.59l0 33.37z"/>
  <path id="4" class="fil0" d="M560.25 310.93c0,0.23 -0.06,0.42 -0.17,0.58 -0.12,0.14 -0.29,0.29 -0.55,0.4 -0.26,0.1 -0.61,0.19 -1.07,0.25 -0.45,0.06 -1.01,0.08 -1.69,0.08 -0.72,0 -1.3,-0.02 -1.74,-0.08 -0.46,-0.06 -0.81,-0.15 -1.07,-0.25 -0.26,-0.11 -0.43,-0.26 -0.55,-0.4 -0.11,-0.16 -0.17,-0.35 -0.17,-0.58l0 -22.28c0,-2.17 -0.17,-3.93 -0.51,-5.24 -0.33,-1.32 -0.82,-2.46 -1.47,-3.43 -0.65,-0.95 -1.47,-1.69 -2.49,-2.19 -1.03,-0.51 -2.21,-0.77 -3.55,-0.77 -1.75,0 -3.48,0.62 -5.21,1.86 -1.74,1.24 -3.56,3.06 -5.46,5.46l0 26.59c0,0.23 -0.06,0.42 -0.18,0.58 -0.11,0.14 -0.29,0.29 -0.54,0.4 -0.26,0.1 -0.61,0.19 -1.07,0.25 -0.45,0.06 -1.03,0.08 -1.73,0.08 -0.69,0 -1.26,-0.02 -1.71,-0.08 -0.46,-0.06 -0.82,-0.15 -1.08,-0.25 -0.27,-0.11 -0.46,-0.26 -0.56,-0.4 -0.1,-0.16 -0.14,-0.35 -0.14,-0.58l0 -38.05c0,-0.23 0.04,-0.41 0.13,-0.57 0.08,-0.15 0.24,-0.29 0.5,-0.42 0.26,-0.13 0.58,-0.22 0.98,-0.26 0.39,-0.04 0.92,-0.06 1.57,-0.06 0.62,0 1.14,0.02 1.55,0.06 0.42,0.04 0.73,0.13 0.96,0.26 0.22,0.13 0.39,0.27 0.49,0.42 0.09,0.16 0.15,0.34 0.15,0.57l0 5.04c2.13,-2.41 4.25,-4.17 6.39,-5.28 2.12,-1.11 4.25,-1.67 6.42,-1.67 2.52,0 4.66,0.43 6.39,1.28 1.73,0.86 3.13,2.02 4.19,3.45 1.07,1.44 1.84,3.13 2.3,5.06 0.46,1.93 0.69,4.25 0.69,6.95l0 23.22z"/>
  <path id="5" class="fil0" d="M580.01 310.93c0,0.23 -0.06,0.42 -0.17,0.58 -0.12,0.14 -0.29,0.29 -0.55,0.4 -0.26,0.1 -0.61,0.19 -1.07,0.25 -0.45,0.06 -1.02,0.08 -1.73,0.08 -0.69,0 -1.25,-0.02 -1.7,-0.08 -0.46,-0.06 -0.82,-0.15 -1.08,-0.25 -0.28,-0.11 -0.46,-0.26 -0.57,-0.4 -0.1,-0.16 -0.14,-0.35 -0.14,-0.58l0 -38.05c0,-0.2 0.04,-0.39 0.14,-0.54 0.11,-0.18 0.29,-0.32 0.57,-0.44 0.26,-0.1 0.62,-0.18 1.08,-0.24 0.45,-0.06 1.01,-0.09 1.7,-0.09 0.71,0 1.28,0.03 1.73,0.09 0.46,0.06 0.81,0.14 1.07,0.24 0.26,0.12 0.43,0.26 0.55,0.44 0.11,0.15 0.17,0.34 0.17,0.54l0 38.05zm0.78 -50.87c0,1.65 -0.32,2.76 -0.94,3.35 -0.62,0.59 -1.76,0.89 -3.43,0.89 -1.65,0 -2.77,-0.29 -3.38,-0.86 -0.6,-0.58 -0.91,-1.68 -0.91,-3.29 0,-1.65 0.32,-2.76 0.94,-3.35 0.62,-0.59 1.76,-0.89 3.43,-0.89 1.65,0 2.77,0.29 3.38,0.86 0.6,0.58 0.91,1.68 0.91,3.29z"/>
  <path id="6" class="fil0" d="M624.02 272.8c0,0.11 0,0.23 -0.02,0.36 -0.01,0.13 -0.04,0.26 -0.06,0.4 -0.03,0.15 -0.07,0.29 -0.11,0.46 -0.05,0.18 -0.09,0.35 -0.15,0.55l-12.96 36.15c-0.12,0.31 -0.28,0.57 -0.45,0.76 -0.19,0.2 -0.46,0.36 -0.82,0.46 -0.38,0.12 -0.84,0.2 -1.4,0.25 -0.56,0.04 -1.27,0.05 -2.12,0.05 -0.84,0 -1.54,-0.02 -2.11,-0.08 -0.56,-0.06 -1.02,-0.15 -1.37,-0.25 -0.36,-0.11 -0.63,-0.27 -0.82,-0.47 -0.2,-0.19 -0.36,-0.44 -0.48,-0.72l-12.92 -36.15c-0.11,-0.33 -0.2,-0.63 -0.27,-0.88 -0.07,-0.26 -0.12,-0.45 -0.13,-0.58 -0.02,-0.13 -0.02,-0.23 -0.02,-0.31 0,-0.23 0.06,-0.42 0.16,-0.59 0.12,-0.18 0.3,-0.31 0.58,-0.41 0.26,-0.1 0.62,-0.16 1.05,-0.19 0.43,-0.02 0.98,-0.04 1.63,-0.04 0.82,0 1.47,0.02 1.96,0.06 0.49,0.04 0.88,0.13 1.14,0.24 0.28,0.1 0.48,0.25 0.59,0.42 0.13,0.18 0.25,0.38 0.36,0.64l10.74 31.37 0.17 0.5 0.13 -0.5 10.6 -31.37c0.06,-0.26 0.16,-0.46 0.3,-0.64 0.13,-0.17 0.35,-0.32 0.61,-0.42 0.27,-0.11 0.63,-0.2 1.09,-0.24 0.48,-0.04 1.09,-0.06 1.85,-0.06 0.65,0 1.18,0.02 1.6,0.04 0.42,0.03 0.75,0.11 1,0.22 0.24,0.1 0.4,0.25 0.5,0.39 0.1,0.16 0.15,0.35 0.15,0.58z"/>
  <path id="7" class="fil0" d="M663.47 290.25c0,1.1 -0.28,1.87 -0.83,2.35 -0.55,0.46 -1.18,0.69 -1.89,0.69l-24.98 0c0,2.12 0.22,4.03 0.64,5.71 0.41,1.71 1.12,3.16 2.12,4.37 0.98,1.22 2.26,2.14 3.83,2.79 1.59,0.65 3.52,0.98 5.8,0.98 1.8,0 3.42,-0.14 4.82,-0.45 1.41,-0.29 2.64,-0.62 3.66,-0.98 1.03,-0.36 1.88,-0.69 2.54,-0.98 0.66,-0.3 1.15,-0.45 1.5,-0.45 0.2,0 0.38,0.05 0.53,0.15 0.15,0.1 0.28,0.24 0.35,0.44 0.09,0.19 0.16,0.47 0.2,0.81 0.05,0.36 0.06,0.78 0.06,1.29 0,0.36 -0.01,0.67 -0.04,0.95 -0.03,0.26 -0.06,0.5 -0.1,0.7 -0.05,0.22 -0.12,0.41 -0.22,0.58 -0.1,0.16 -0.22,0.32 -0.38,0.48 -0.15,0.16 -0.62,0.4 -1.37,0.75 -0.76,0.36 -1.74,0.69 -2.95,1.04 -1.21,0.33 -2.61,0.63 -4.2,0.89 -1.59,0.27 -3.27,0.4 -5.08,0.4 -3.13,0 -5.85,-0.43 -8.2,-1.31 -2.35,-0.86 -4.33,-2.16 -5.93,-3.88 -1.6,-1.73 -2.81,-3.88 -3.62,-6.47 -0.82,-2.59 -1.23,-5.6 -1.23,-9.05 0,-3.26 0.42,-6.2 1.27,-8.81 0.84,-2.6 2.06,-4.82 3.65,-6.64 1.59,-1.81 3.52,-3.2 5.77,-4.18 2.25,-0.96 4.77,-1.45 7.56,-1.45 2.98,0 5.52,0.47 7.61,1.44 2.11,0.95 3.83,2.25 5.18,3.86 1.34,1.62 2.34,3.52 2.97,5.71 0.64,2.18 0.96,4.52 0.96,7l0 1.27zm-7.02 -2.06c0.09,-3.67 -0.72,-6.55 -2.43,-8.64 -1.72,-2.09 -4.24,-3.13 -7.6,-3.13 -1.73,0 -3.25,0.31 -4.55,0.96 -1.3,0.65 -2.38,1.52 -3.26,2.6 -0.88,1.07 -1.56,2.32 -2.03,3.74 -0.48,1.42 -0.75,2.91 -0.81,4.47l20.68 0z"/>
  <path id="8" class="fil0" d="M696.39 275.35c0,0.62 -0.01,1.14 -0.04,1.56 -0.03,0.42 -0.09,0.75 -0.17,0.99 -0.07,0.25 -0.19,0.42 -0.32,0.55 -0.12,0.13 -0.29,0.19 -0.52,0.19 -0.23,0 -0.5,-0.06 -0.82,-0.19 -0.33,-0.13 -0.69,-0.26 -1.1,-0.37 -0.4,-0.13 -0.86,-0.25 -1.37,-0.36 -0.5,-0.12 -1.05,-0.18 -1.64,-0.18 -0.71,0 -1.4,0.15 -2.08,0.42 -0.66,0.29 -1.38,0.75 -2.12,1.41 -0.75,0.65 -1.53,1.52 -2.35,2.59 -0.81,1.08 -1.72,2.39 -2.7,3.95l0 25.02c0,0.23 -0.06,0.42 -0.17,0.58 -0.12,0.14 -0.29,0.29 -0.55,0.4 -0.26,0.1 -0.6,0.19 -1.07,0.25 -0.44,0.06 -1.02,0.08 -1.73,0.08 -0.69,0 -1.25,-0.02 -1.7,-0.08 -0.46,-0.06 -0.82,-0.15 -1.08,-0.25 -0.27,-0.11 -0.46,-0.26 -0.56,-0.4 -0.1,-0.16 -0.15,-0.35 -0.15,-0.58l0 -38.05c0,-0.23 0.05,-0.41 0.13,-0.57 0.09,-0.15 0.25,-0.29 0.51,-0.42 0.26,-0.13 0.57,-0.22 0.98,-0.26 0.39,-0.04 0.92,-0.06 1.57,-0.06 0.62,0 1.14,0.02 1.54,0.06 0.42,0.04 0.74,0.13 0.97,0.26 0.22,0.13 0.39,0.27 0.49,0.42 0.09,0.16 0.14,0.34 0.14,0.57l0 5.54c1.04,-1.53 2.02,-2.77 2.93,-3.73 0.93,-0.96 1.79,-1.72 2.6,-2.27 0.82,-0.55 1.63,-0.92 2.42,-1.14 0.81,-0.21 1.62,-0.31 2.44,-0.31 0.36,0 0.78,0.01 1.24,0.05 0.46,0.05 0.95,0.13 1.46,0.23 0.5,0.12 0.96,0.25 1.37,0.39 0.4,0.15 0.69,0.28 0.86,0.42 0.18,0.15 0.29,0.28 0.33,0.41 0.06,0.12 0.12,0.28 0.16,0.47 0.05,0.2 0.08,0.49 0.09,0.87 0.01,0.39 0.01,0.89 0.01,1.54z"/>
  <path id="9" class="fil0" d="M726.73 300.55c0,1.95 -0.36,3.68 -1.09,5.21 -0.72,1.51 -1.73,2.79 -3.05,3.83 -1.33,1.04 -2.9,1.83 -4.73,2.37 -1.84,0.53 -3.86,0.8 -6.05,0.8 -1.35,0 -2.64,-0.1 -3.86,-0.31 -1.23,-0.21 -2.33,-0.46 -3.31,-0.8 -0.96,-0.31 -1.79,-0.65 -2.46,-0.99 -0.68,-0.35 -1.17,-0.66 -1.47,-0.94 -0.32,-0.27 -0.55,-0.68 -0.68,-1.18 -0.15,-0.51 -0.22,-1.2 -0.22,-2.08 0,-0.53 0.03,-0.98 0.09,-1.34 0.06,-0.38 0.13,-0.66 0.2,-0.89 0.09,-0.24 0.22,-0.39 0.36,-0.49 0.16,-0.11 0.33,-0.15 0.53,-0.15 0.31,0 0.77,0.19 1.37,0.58 0.61,0.37 1.36,0.79 2.24,1.24 0.88,0.45 1.93,0.86 3.14,1.24 1.22,0.39 2.6,0.58 4.17,0.58 1.19,0 2.25,-0.13 3.2,-0.39 0.97,-0.25 1.79,-0.62 2.5,-1.13 0.71,-0.49 1.24,-1.12 1.63,-1.89 0.37,-0.76 0.56,-1.67 0.56,-2.72 0,-1.07 -0.27,-1.98 -0.82,-2.7 -0.55,-0.74 -1.27,-1.39 -2.16,-1.95 -0.91,-0.56 -1.92,-1.07 -3.05,-1.5 -1.12,-0.43 -2.28,-0.89 -3.47,-1.37 -1.19,-0.49 -2.35,-1.02 -3.49,-1.63 -1.14,-0.6 -2.15,-1.34 -3.06,-2.22 -0.9,-0.88 -1.62,-1.92 -2.16,-3.13 -0.55,-1.21 -0.83,-2.65 -0.83,-4.36 0,-1.48 0.29,-2.91 0.87,-4.28 0.58,-1.37 1.44,-2.57 2.59,-3.59 1.17,-1.03 2.62,-1.86 4.35,-2.48 1.73,-0.62 3.75,-0.92 6.07,-0.92 1.01,0 2.02,0.08 3.04,0.25 1.01,0.18 1.92,0.41 2.74,0.67 0.83,0.26 1.52,0.55 2.09,0.85 0.58,0.32 1.03,0.58 1.32,0.82 0.3,0.23 0.49,0.43 0.59,0.59 0.1,0.18 0.17,0.36 0.22,0.58 0.04,0.2 0.08,0.46 0.12,0.76 0.05,0.32 0.06,0.7 0.06,1.14 0,0.48 -0.01,0.9 -0.06,1.24 -0.04,0.35 -0.11,0.64 -0.21,0.85 -0.1,0.24 -0.22,0.39 -0.36,0.5 -0.15,0.1 -0.31,0.14 -0.46,0.14 -0.26,0 -0.62,-0.16 -1.11,-0.48 -0.48,-0.3 -1.1,-0.63 -1.87,-0.99 -0.76,-0.36 -1.65,-0.69 -2.68,-1 -1.02,-0.31 -2.2,-0.47 -3.53,-0.47 -1.18,0 -2.24,0.13 -3.13,0.4 -0.91,0.26 -1.65,0.64 -2.22,1.13 -0.58,0.49 -1.03,1.06 -1.32,1.74 -0.3,0.67 -0.44,1.4 -0.44,2.18 0,1.1 0.29,2.02 0.85,2.77 0.56,0.75 1.28,1.4 2.19,1.96 0.9,0.56 1.93,1.07 3.09,1.53 1.15,0.45 2.32,0.91 3.52,1.38 1.19,0.49 2.38,1.03 3.55,1.62 1.16,0.59 2.2,1.31 3.1,2.15 0.91,0.85 1.63,1.86 2.17,3.04 0.55,1.18 0.83,2.6 0.83,4.23z"/>
  <path id="10" class="fil0" d="M743.7 310.93c0,0.23 -0.06,0.42 -0.17,0.58 -0.12,0.14 -0.29,0.29 -0.55,0.4 -0.26,0.1 -0.6,0.19 -1.07,0.25 -0.44,0.06 -1.02,0.08 -1.73,0.08 -0.69,0 -1.25,-0.02 -1.7,-0.08 -0.46,-0.06 -0.82,-0.15 -1.08,-0.25 -0.27,-0.11 -0.46,-0.26 -0.56,-0.4 -0.1,-0.16 -0.15,-0.35 -0.15,-0.58l0 -38.05c0,-0.2 0.05,-0.39 0.15,-0.54 0.1,-0.18 0.29,-0.32 0.56,-0.44 0.26,-0.1 0.62,-0.18 1.08,-0.24 0.45,-0.06 1.01,-0.09 1.7,-0.09 0.71,0 1.29,0.03 1.73,0.09 0.47,0.06 0.81,0.14 1.07,0.24 0.26,0.12 0.43,0.26 0.55,0.44 0.11,0.15 0.17,0.34 0.17,0.54l0 38.05zm0.78 -50.87c0,1.65 -0.32,2.76 -0.94,3.35 -0.62,0.59 -1.76,0.89 -3.43,0.89 -1.64,0 -2.77,-0.29 -3.37,-0.86 -0.61,-0.58 -0.91,-1.68 -0.91,-3.29 0,-1.65 0.31,-2.76 0.94,-3.35 0.62,-0.59 1.76,-0.89 3.43,-0.89 1.64,0 2.77,0.29 3.37,0.86 0.61,0.58 0.91,1.68 0.91,3.29z"/>
  <path id="11" class="fil0" d="M776.29 308.11c0,0.82 -0.06,1.47 -0.18,1.94 -0.1,0.48 -0.27,0.84 -0.5,1.06 -0.22,0.23 -0.56,0.44 -1.01,0.63 -0.45,0.2 -0.97,0.36 -1.55,0.49 -0.57,0.13 -1.18,0.23 -1.83,0.32 -0.65,0.08 -1.28,0.13 -1.93,0.13 -1.98,0 -3.66,-0.26 -5.06,-0.78 -1.4,-0.52 -2.56,-1.31 -3.46,-2.37 -0.9,-1.05 -1.55,-2.39 -1.97,-4.01 -0.4,-1.61 -0.6,-3.52 -0.6,-5.71l0 -22.18 -5.35 0c-0.42,0 -0.77,-0.23 -1.03,-0.68 -0.24,-0.45 -0.37,-1.18 -0.37,-2.21 0,-0.53 0.03,-0.98 0.1,-1.34 0.07,-0.37 0.17,-0.68 0.27,-0.92 0.12,-0.23 0.28,-0.4 0.45,-0.51 0.19,-0.1 0.39,-0.14 0.62,-0.14l5.31 0 0 -9.03c0,-0.2 0.04,-0.39 0.14,-0.55 0.1,-0.17 0.29,-0.31 0.57,-0.44 0.26,-0.13 0.62,-0.22 1.08,-0.28 0.44,-0.06 1.01,-0.08 1.7,-0.08 0.71,0 1.28,0.02 1.73,0.08 0.46,0.06 0.81,0.15 1.07,0.28 0.26,0.13 0.43,0.27 0.54,0.44 0.12,0.16 0.18,0.35 0.18,0.55l0 9.03 9.69 0c0.23,0 0.42,0.04 0.59,0.14 0.16,0.11 0.32,0.28 0.44,0.51 0.13,0.24 0.21,0.55 0.27,0.92 0.06,0.36 0.09,0.81 0.09,1.34 0,1.03 -0.13,1.76 -0.38,2.21 -0.26,0.45 -0.59,0.68 -1.01,0.68l-9.69 0 0 21.16c0,2.61 0.39,4.58 1.15,5.91 0.77,1.34 2.15,2.01 4.14,2.01 0.64,0 1.21,-0.06 1.72,-0.19 0.5,-0.13 0.95,-0.26 1.34,-0.41 0.39,-0.14 0.72,-0.27 1.01,-0.4 0.27,-0.13 0.53,-0.19 0.75,-0.19 0.14,0 0.27,0.03 0.4,0.1 0.12,0.08 0.22,0.21 0.29,0.41 0.07,0.2 0.13,0.46 0.19,0.81 0.06,0.33 0.09,0.76 0.09,1.27z"/>
  <path id="12" class="fil0" d="M813.14 310.98c0,0.33 -0.12,0.59 -0.33,0.76 -0.23,0.17 -0.54,0.29 -0.94,0.38 -0.39,0.08 -0.97,0.12 -1.73,0.12 -0.72,0 -1.32,-0.04 -1.75,-0.12 -0.43,-0.09 -0.75,-0.21 -0.95,-0.38 -0.2,-0.17 -0.3,-0.42 -0.3,-0.76l0 -3.81c-1.66,1.77 -3.51,3.16 -5.56,4.14 -2.04,0.96 -4.21,1.45 -6.49,1.45 -2,0 -3.82,-0.25 -5.43,-0.77 -1.62,-0.52 -3,-1.29 -4.14,-2.27 -1.14,-0.98 -2.04,-2.21 -2.67,-3.63 -0.64,-1.45 -0.95,-3.08 -0.95,-4.91 0,-2.15 0.43,-4.01 1.31,-5.58 0.86,-1.59 2.12,-2.9 3.76,-3.94 1.63,-1.04 3.64,-1.83 6,-2.35 2.37,-0.52 5.04,-0.78 7.99,-0.78l5.25 0 0 -2.97c0,-1.46 -0.15,-2.75 -0.46,-3.89 -0.32,-1.13 -0.81,-2.06 -1.5,-2.81 -0.69,-0.76 -1.58,-1.32 -2.68,-1.69 -1.1,-0.39 -2.45,-0.58 -4.05,-0.58 -1.72,0 -3.26,0.2 -4.62,0.62 -1.37,0.42 -2.57,0.87 -3.59,1.37 -1.02,0.51 -1.89,0.95 -2.58,1.37 -0.68,0.42 -1.2,0.62 -1.53,0.62 -0.23,0 -0.43,-0.06 -0.59,-0.17 -0.18,-0.1 -0.32,-0.28 -0.45,-0.51 -0.13,-0.21 -0.22,-0.5 -0.27,-0.85 -0.06,-0.36 -0.09,-0.73 -0.09,-1.17 0,-0.69 0.04,-1.25 0.14,-1.65 0.1,-0.41 0.35,-0.8 0.73,-1.16 0.37,-0.36 1.03,-0.79 1.96,-1.3 0.92,-0.49 2,-0.95 3.21,-1.37 1.2,-0.4 2.53,-0.75 3.97,-1.02 1.43,-0.28 2.88,-0.4 4.34,-0.4 2.73,0 5.05,0.3 6.97,0.92 1.92,0.62 3.46,1.54 4.64,2.74 1.18,1.2 2.04,2.68 2.57,4.46 0.53,1.77 0.81,3.85 0.81,6.21l0 25.68zm-6.93 -17.43l-5.95 0c-1.91,0 -3.57,0.16 -4.98,0.49 -1.4,0.32 -2.57,0.81 -3.5,1.44 -0.93,0.64 -1.61,1.39 -2.05,2.28 -0.43,0.9 -0.65,1.92 -0.65,3.08 0,1.97 0.62,3.54 1.87,4.71 1.26,1.17 3,1.76 5.27,1.76 1.82,0 3.52,-0.46 5.08,-1.4 1.55,-0.92 3.2,-2.35 4.91,-4.27l0 -8.09zm-10.9 -33.01c0,1.56 -0.29,2.61 -0.85,3.17 -0.56,0.56 -1.6,0.85 -3.13,0.85 -1.53,0 -2.55,-0.27 -3.09,-0.82 -0.53,-0.55 -0.81,-1.57 -0.81,-3.07 0,-1.59 0.28,-2.66 0.83,-3.22 0.54,-0.56 1.58,-0.85 3.11,-0.85 1.56,0 2.6,0.29 3.13,0.85 0.54,0.56 0.81,1.59 0.81,3.09zm14.97 0c0,1.56 -0.29,2.61 -0.85,3.17 -0.56,0.56 -1.6,0.85 -3.13,0.85 -1.53,0 -2.55,-0.27 -3.09,-0.82 -0.53,-0.55 -0.8,-1.57 -0.8,-3.07 0,-1.59 0.27,-2.66 0.82,-3.22 0.55,-0.56 1.58,-0.85 3.11,-0.85 1.56,0 2.6,0.29 3.13,0.85 0.54,0.56 0.81,1.59 0.81,3.09z"/>
  <path id="13" class="fil0" d="M844.87 308.11c0,0.82 -0.06,1.47 -0.17,1.94 -0.11,0.48 -0.28,0.84 -0.51,1.06 -0.22,0.23 -0.56,0.44 -1.01,0.63 -0.45,0.2 -0.96,0.36 -1.54,0.49 -0.58,0.13 -1.19,0.23 -1.83,0.32 -0.65,0.08 -1.29,0.13 -1.94,0.13 -1.97,0 -3.66,-0.26 -5.06,-0.78 -1.4,-0.52 -2.55,-1.31 -3.46,-2.37 -0.9,-1.05 -1.54,-2.39 -1.96,-4.01 -0.41,-1.61 -0.61,-3.52 -0.61,-5.71l0 -22.18 -5.35 0c-0.42,0 -0.76,-0.23 -1.02,-0.68 -0.25,-0.45 -0.38,-1.18 -0.38,-2.21 0,-0.53 0.03,-0.98 0.1,-1.34 0.07,-0.37 0.18,-0.68 0.28,-0.92 0.11,-0.23 0.27,-0.4 0.44,-0.51 0.19,-0.1 0.39,-0.14 0.62,-0.14l5.31 0 0 -9.03c0,-0.2 0.05,-0.39 0.15,-0.55 0.1,-0.17 0.29,-0.31 0.56,-0.44 0.26,-0.13 0.62,-0.22 1.08,-0.28 0.45,-0.06 1.01,-0.08 1.7,-0.08 0.71,0 1.29,0.02 1.73,0.08 0.46,0.06 0.81,0.15 1.07,0.28 0.26,0.13 0.43,0.27 0.55,0.44 0.11,0.16 0.17,0.35 0.17,0.55l0 9.03 9.69 0c0.23,0 0.42,0.04 0.6,0.14 0.15,0.11 0.31,0.28 0.43,0.51 0.13,0.24 0.22,0.55 0.27,0.92 0.06,0.36 0.09,0.81 0.09,1.34 0,1.03 -0.13,1.76 -0.38,2.21 -0.26,0.45 -0.59,0.68 -1.01,0.68l-9.69 0 0 21.16c0,2.61 0.39,4.58 1.16,5.91 0.76,1.34 2.14,2.01 4.13,2.01 0.64,0 1.22,-0.06 1.72,-0.19 0.51,-0.13 0.95,-0.26 1.34,-0.41 0.39,-0.14 0.72,-0.27 1.01,-0.4 0.28,-0.13 0.54,-0.19 0.75,-0.19 0.15,0 0.28,0.03 0.41,0.1 0.11,0.08 0.21,0.21 0.28,0.41 0.08,0.2 0.14,0.46 0.19,0.81 0.06,0.33 0.09,0.76 0.09,1.27z"/>
  <path id="14" class="fil0" d="M913.84 310.89c0,0.23 -0.06,0.43 -0.17,0.59 -0.12,0.17 -0.3,0.3 -0.59,0.4 -0.29,0.11 -0.67,0.19 -1.13,0.26 -0.47,0.08 -1.04,0.1 -1.71,0.1 -0.75,0 -1.35,-0.02 -1.79,-0.1 -0.46,-0.07 -0.82,-0.15 -1.11,-0.26 -0.29,-0.1 -0.48,-0.23 -0.59,-0.4 -0.12,-0.16 -0.18,-0.36 -0.18,-0.59l0 -24.26 -24.83 0 0 24.26c0,0.23 -0.06,0.43 -0.18,0.59 -0.11,0.17 -0.3,0.3 -0.59,0.4 -0.27,0.11 -0.65,0.19 -1.11,0.26 -0.48,0.08 -1.05,0.1 -1.76,0.1 -0.68,0 -1.25,-0.02 -1.73,-0.1 -0.48,-0.07 -0.87,-0.15 -1.14,-0.26 -0.29,-0.1 -0.48,-0.23 -0.59,-0.4 -0.12,-0.16 -0.17,-0.36 -0.17,-0.59l0 -52.5c0,-0.23 0.05,-0.44 0.17,-0.59 0.11,-0.18 0.3,-0.31 0.59,-0.41 0.27,-0.1 0.66,-0.19 1.14,-0.26 0.48,-0.07 1.05,-0.1 1.73,-0.1 0.71,0 1.28,0.03 1.76,0.1 0.46,0.07 0.84,0.16 1.11,0.26 0.29,0.1 0.48,0.23 0.59,0.41 0.12,0.17 0.18,0.36 0.18,0.59l0 21.92 24.83 0 0 -21.92c0,-0.23 0.06,-0.42 0.18,-0.59 0.11,-0.18 0.3,-0.31 0.59,-0.41 0.29,-0.1 0.65,-0.19 1.11,-0.26 0.44,-0.07 1.04,-0.1 1.79,-0.1 0.67,0 1.24,0.03 1.71,0.1 0.46,0.07 0.84,0.16 1.13,0.26 0.29,0.1 0.47,0.23 0.59,0.41 0.11,0.15 0.17,0.36 0.17,0.59l0 52.5z"/>
  <path id="15" class="fil0" d="M959.97 290.25c0,1.1 -0.28,1.87 -0.82,2.35 -0.55,0.46 -1.19,0.69 -1.89,0.69l-24.98 0c0,2.12 0.21,4.03 0.63,5.71 0.42,1.71 1.13,3.16 2.12,4.37 0.98,1.22 2.26,2.14 3.84,2.79 1.58,0.65 3.52,0.98 5.79,0.98 1.81,0 3.42,-0.14 4.82,-0.45 1.42,-0.29 2.64,-0.62 3.67,-0.98 1.02,-0.36 1.87,-0.69 2.53,-0.98 0.67,-0.3 1.16,-0.45 1.5,-0.45 0.21,0 0.38,0.05 0.54,0.15 0.14,0.1 0.27,0.24 0.34,0.44 0.09,0.19 0.16,0.47 0.21,0.81 0.04,0.36 0.05,0.78 0.05,1.29 0,0.36 -0.01,0.67 -0.04,0.95 -0.03,0.26 -0.06,0.5 -0.1,0.7 -0.04,0.22 -0.12,0.41 -0.22,0.58 -0.1,0.16 -0.21,0.32 -0.37,0.48 -0.16,0.16 -0.62,0.4 -1.37,0.75 -0.77,0.36 -1.75,0.69 -2.96,1.04 -1.21,0.33 -2.61,0.63 -4.2,0.89 -1.58,0.27 -3.27,0.4 -5.07,0.4 -3.13,0 -5.86,-0.43 -8.21,-1.31 -2.35,-0.86 -4.33,-2.16 -5.93,-3.88 -1.6,-1.73 -2.81,-3.88 -3.62,-6.47 -0.82,-2.59 -1.22,-5.6 -1.22,-9.05 0,-3.26 0.41,-6.2 1.26,-8.81 0.84,-2.6 2.07,-4.82 3.65,-6.64 1.59,-1.81 3.52,-3.2 5.77,-4.18 2.25,-0.96 4.78,-1.45 7.56,-1.45 2.99,0 5.53,0.47 7.62,1.44 2.1,0.95 3.82,2.25 5.17,3.86 1.35,1.62 2.34,3.52 2.98,5.71 0.63,2.18 0.95,4.52 0.95,7l0 1.27zm-7.01 -2.06c0.09,-3.67 -0.72,-6.55 -2.44,-8.64 -1.71,-2.09 -4.24,-3.13 -7.6,-3.13 -1.73,0 -3.25,0.31 -4.54,0.96 -1.3,0.65 -2.38,1.52 -3.26,2.6 -0.88,1.07 -1.56,2.32 -2.04,3.74 -0.47,1.42 -0.75,2.91 -0.8,4.47l20.68 0z"/>
  <path id="16" class="fil0" d="M977.67 310.93c0,0.23 -0.06,0.42 -0.18,0.58 -0.11,0.14 -0.29,0.29 -0.54,0.4 -0.26,0.1 -0.61,0.19 -1.07,0.25 -0.45,0.06 -1.03,0.08 -1.73,0.08 -0.69,0 -1.26,-0.02 -1.71,-0.08 -0.46,-0.06 -0.82,-0.15 -1.08,-0.25 -0.27,-0.11 -0.46,-0.26 -0.56,-0.4 -0.1,-0.16 -0.14,-0.35 -0.14,-0.58l0 -38.05c0,-0.2 0.04,-0.39 0.14,-0.54 0.1,-0.18 0.29,-0.32 0.56,-0.44 0.26,-0.1 0.62,-0.18 1.08,-0.24 0.45,-0.06 1.02,-0.09 1.71,-0.09 0.7,0 1.28,0.03 1.73,0.09 0.46,0.06 0.81,0.14 1.07,0.24 0.25,0.12 0.43,0.26 0.54,0.44 0.12,0.15 0.18,0.34 0.18,0.54l0 38.05zm0.78 -50.87c0,1.65 -0.32,2.76 -0.94,3.35 -0.62,0.59 -1.76,0.89 -3.43,0.89 -1.65,0 -2.77,-0.29 -3.38,-0.86 -0.61,-0.58 -0.91,-1.68 -0.91,-3.29 0,-1.65 0.32,-2.76 0.94,-3.35 0.62,-0.59 1.76,-0.89 3.43,-0.89 1.65,0 2.77,0.29 3.38,0.86 0.6,0.58 0.91,1.68 0.91,3.29z"/>
  <path id="17" class="fil0" d="M1023.06 310.93c0,0.23 -0.05,0.42 -0.15,0.59 -0.1,0.18 -0.27,0.31 -0.5,0.41 -0.25,0.1 -0.56,0.17 -0.95,0.23 -0.41,0.06 -0.88,0.08 -1.45,0.08 -0.59,0 -1.08,-0.02 -1.47,-0.08 -0.4,-0.06 -0.72,-0.13 -0.98,-0.23 -0.24,-0.1 -0.43,-0.23 -0.55,-0.41 -0.1,-0.17 -0.15,-0.37 -0.15,-0.59l0 -5.06c-2.01,2.18 -4.09,3.87 -6.24,5.08 -2.16,1.21 -4.51,1.81 -7.08,1.81 -2.78,0 -5.16,-0.54 -7.12,-1.62 -1.98,-1.09 -3.58,-2.56 -4.81,-4.4 -1.21,-1.85 -2.1,-4.01 -2.66,-6.51 -0.57,-2.49 -0.85,-5.12 -0.85,-7.87 0,-3.28 0.34,-6.24 1.05,-8.86 0.7,-2.64 1.74,-4.89 3.13,-6.75 1.37,-1.86 3.09,-3.29 5.13,-4.28 2.04,-1 4.39,-1.5 7.07,-1.5 2.22,0 4.26,0.49 6.1,1.45 1.85,0.98 3.67,2.41 5.47,4.3l0 -22.05c0,-0.21 0.04,-0.39 0.14,-0.58 0.1,-0.19 0.29,-0.32 0.58,-0.42 0.27,-0.1 0.63,-0.19 1.07,-0.26 0.44,-0.07 0.99,-0.1 1.67,-0.1 0.71,0 1.28,0.03 1.73,0.1 0.45,0.07 0.81,0.16 1.05,0.26 0.26,0.1 0.45,0.23 0.58,0.42 0.13,0.19 0.19,0.37 0.19,0.58l0 56.26zm-7.01 -26.78c-1.88,-2.35 -3.69,-4.14 -5.45,-5.37 -1.76,-1.22 -3.6,-1.84 -5.5,-1.84 -1.77,0 -3.27,0.41 -4.51,1.27 -1.24,0.85 -2.24,1.96 -3.02,3.34 -0.76,1.37 -1.33,2.94 -1.67,4.69 -0.36,1.74 -0.53,3.52 -0.53,5.32 0,1.92 0.14,3.79 0.44,5.63 0.29,1.83 0.81,3.46 1.53,4.89 0.74,1.42 1.7,2.56 2.91,3.43 1.2,0.85 2.73,1.28 4.55,1.28 0.92,0 1.81,-0.13 2.68,-0.37 0.85,-0.26 1.73,-0.68 2.63,-1.27 0.89,-0.59 1.84,-1.36 2.82,-2.31 0.98,-0.94 2.02,-2.09 3.12,-3.48l0 -15.21z"/>
  <path id="18" class="fil0" d="M1068.35 290.25c0,1.1 -0.28,1.87 -0.82,2.35 -0.55,0.46 -1.19,0.69 -1.89,0.69l-24.99 0c0,2.12 0.22,4.03 0.64,5.71 0.42,1.71 1.12,3.16 2.12,4.37 0.98,1.22 2.26,2.14 3.84,2.79 1.58,0.65 3.51,0.98 5.79,0.98 1.81,0 3.42,-0.14 4.82,-0.45 1.42,-0.29 2.64,-0.62 3.66,-0.98 1.03,-0.36 1.88,-0.69 2.54,-0.98 0.67,-0.3 1.16,-0.45 1.5,-0.45 0.21,0 0.38,0.05 0.54,0.15 0.14,0.1 0.27,0.24 0.34,0.44 0.09,0.19 0.16,0.47 0.21,0.81 0.04,0.36 0.05,0.78 0.05,1.29 0,0.36 -0.01,0.67 -0.04,0.95 -0.03,0.26 -0.06,0.5 -0.1,0.7 -0.04,0.22 -0.12,0.41 -0.22,0.58 -0.1,0.16 -0.21,0.32 -0.37,0.48 -0.16,0.16 -0.62,0.4 -1.37,0.75 -0.77,0.36 -1.75,0.69 -2.96,1.04 -1.21,0.33 -2.61,0.63 -4.2,0.89 -1.58,0.27 -3.27,0.4 -5.07,0.4 -3.13,0 -5.86,-0.43 -8.21,-1.31 -2.35,-0.86 -4.33,-2.16 -5.93,-3.88 -1.6,-1.73 -2.81,-3.88 -3.62,-6.47 -0.82,-2.59 -1.23,-5.6 -1.23,-9.05 0,-3.26 0.42,-6.2 1.27,-8.81 0.84,-2.6 2.07,-4.82 3.65,-6.64 1.59,-1.81 3.52,-3.2 5.77,-4.18 2.25,-0.96 4.78,-1.45 7.56,-1.45 2.99,0 5.53,0.47 7.62,1.44 2.1,0.95 3.82,2.25 5.17,3.86 1.35,1.62 2.34,3.52 2.98,5.71 0.63,2.18 0.95,4.52 0.95,7l0 1.27zm-7.01 -2.06c0.08,-3.67 -0.72,-6.55 -2.44,-8.64 -1.72,-2.09 -4.24,-3.13 -7.6,-3.13 -1.73,0 -3.25,0.31 -4.54,0.96 -1.3,0.65 -2.38,1.52 -3.26,2.6 -0.88,1.07 -1.56,2.32 -2.04,3.74 -0.47,1.42 -0.75,2.91 -0.81,4.47l20.69 0z"/>
  <path id="19" class="fil0" d="M1086.05 310.93c0,0.23 -0.06,0.42 -0.18,0.58 -0.11,0.14 -0.29,0.29 -0.55,0.4 -0.25,0.1 -0.6,0.19 -1.06,0.25 -0.45,0.06 -1.03,0.08 -1.73,0.08 -0.7,0 -1.26,-0.02 -1.71,-0.08 -0.46,-0.06 -0.82,-0.15 -1.08,-0.25 -0.27,-0.11 -0.46,-0.26 -0.56,-0.4 -0.1,-0.16 -0.14,-0.35 -0.14,-0.58l0 -56.44c0,-0.23 0.04,-0.43 0.14,-0.59 0.1,-0.17 0.29,-0.32 0.56,-0.43 0.26,-0.1 0.62,-0.19 1.08,-0.25 0.45,-0.05 1.01,-0.08 1.71,-0.08 0.7,0 1.28,0.03 1.73,0.08 0.46,0.06 0.81,0.15 1.06,0.25 0.26,0.11 0.44,0.26 0.55,0.43 0.12,0.16 0.18,0.36 0.18,0.59l0 56.44z"/>
  <path id="20" class="fil0" d="M1133.86 291.37c0,3.31 -0.36,6.26 -1.08,8.9 -0.71,2.64 -1.76,4.89 -3.16,6.74 -1.39,1.86 -3.1,3.29 -5.12,4.27 -2.02,0.99 -4.34,1.48 -6.95,1.48 -1.21,0 -2.34,-0.11 -3.36,-0.36 -1.03,-0.23 -2.04,-0.62 -3.02,-1.15 -0.98,-0.55 -1.96,-1.21 -2.96,-2.03 -0.98,-0.83 -2.01,-1.81 -3.11,-2.96l0 4.67c0,0.22 -0.06,0.42 -0.17,0.59 -0.12,0.18 -0.29,0.31 -0.55,0.41 -0.26,0.1 -0.58,0.17 -0.95,0.23 -0.39,0.06 -0.88,0.08 -1.47,0.08 -0.57,0 -1.06,-0.02 -1.45,-0.08 -0.4,-0.06 -0.72,-0.13 -0.98,-0.23 -0.24,-0.1 -0.42,-0.23 -0.5,-0.41 -0.09,-0.17 -0.13,-0.36 -0.13,-0.59l0 -56.44c0,-0.23 0.04,-0.43 0.14,-0.59 0.1,-0.17 0.29,-0.32 0.56,-0.43 0.26,-0.1 0.62,-0.19 1.09,-0.25 0.44,-0.05 1.01,-0.08 1.7,-0.08 0.7,0 1.28,0.03 1.73,0.08 0.46,0.06 0.81,0.15 1.07,0.25 0.26,0.11 0.43,0.26 0.54,0.43 0.12,0.16 0.18,0.36 0.18,0.59l0 22.73c1.12,-1.15 2.2,-2.13 3.27,-2.92 1.05,-0.78 2.08,-1.43 3.09,-1.92 1.02,-0.49 2.03,-0.85 3.04,-1.08 1.01,-0.22 2.08,-0.33 3.2,-0.33 2.76,0 5.11,0.54 7.07,1.64 1.95,1.1 3.53,2.58 4.76,4.41 1.23,1.85 2.12,4.01 2.68,6.49 0.57,2.48 0.84,5.11 0.84,7.86zm-7.27 0.81c0,-1.94 -0.14,-3.83 -0.45,-5.67 -0.28,-1.84 -0.8,-3.46 -1.54,-4.87 -0.74,-1.41 -1.7,-2.55 -2.91,-3.4 -1.21,-0.87 -2.73,-1.3 -4.53,-1.3 -0.9,0 -1.79,0.13 -2.67,0.37 -0.87,0.26 -1.76,0.69 -2.65,1.28 -0.91,0.6 -1.85,1.36 -2.82,2.3 -0.98,0.92 -2.02,2.1 -3.11,3.52l0 15.17c1.92,2.35 3.75,4.14 5.49,5.37 1.75,1.22 3.58,1.84 5.47,1.84 1.74,0 3.23,-0.41 4.47,-1.27 1.24,-0.85 2.25,-1.97 3.03,-3.37 0.78,-1.39 1.34,-2.96 1.69,-4.69 0.36,-1.74 0.53,-3.5 0.53,-5.28z"/>
  <path id="21" class="fil0" d="M1176.73 290.25c0,1.1 -0.28,1.87 -0.83,2.35 -0.54,0.46 -1.18,0.69 -1.89,0.69l-24.98 0c0,2.12 0.22,4.03 0.64,5.71 0.42,1.71 1.12,3.16 2.12,4.37 0.98,1.22 2.26,2.14 3.83,2.79 1.59,0.65 3.52,0.98 5.8,0.98 1.81,0 3.42,-0.14 4.82,-0.45 1.41,-0.29 2.64,-0.62 3.66,-0.98 1.03,-0.36 1.88,-0.69 2.54,-0.98 0.67,-0.3 1.16,-0.45 1.5,-0.45 0.21,0 0.38,0.05 0.54,0.15 0.14,0.1 0.27,0.24 0.34,0.44 0.09,0.19 0.16,0.47 0.2,0.81 0.05,0.36 0.06,0.78 0.06,1.29 0,0.36 -0.01,0.67 -0.04,0.95 -0.03,0.26 -0.06,0.5 -0.1,0.7 -0.04,0.22 -0.12,0.41 -0.22,0.58 -0.1,0.16 -0.21,0.32 -0.37,0.48 -0.16,0.16 -0.62,0.4 -1.37,0.75 -0.77,0.36 -1.75,0.69 -2.96,1.04 -1.21,0.33 -2.61,0.63 -4.2,0.89 -1.58,0.27 -3.27,0.4 -5.07,0.4 -3.13,0 -5.86,-0.43 -8.21,-1.31 -2.35,-0.86 -4.33,-2.16 -5.93,-3.88 -1.6,-1.73 -2.81,-3.88 -3.62,-6.47 -0.82,-2.59 -1.23,-5.6 -1.23,-9.05 0,-3.26 0.42,-6.2 1.27,-8.81 0.84,-2.6 2.07,-4.82 3.65,-6.64 1.59,-1.81 3.52,-3.2 5.77,-4.18 2.25,-0.96 4.78,-1.45 7.56,-1.45 2.99,0 5.52,0.47 7.62,1.44 2.1,0.95 3.82,2.25 5.17,3.86 1.35,1.62 2.34,3.52 2.97,5.71 0.64,2.18 0.96,4.52 0.96,7l0 1.27zm-7.01 -2.06c0.08,-3.67 -0.72,-6.55 -2.44,-8.64 -1.72,-2.09 -4.24,-3.13 -7.6,-3.13 -1.73,0 -3.25,0.31 -4.55,0.96 -1.29,0.65 -2.37,1.52 -3.26,2.6 -0.88,1.07 -1.55,2.32 -2.03,3.74 -0.47,1.42 -0.75,2.91 -0.81,4.47l20.69 0z"/>
  <path id="22" class="fil0" d="M1209.66 275.35c0,0.62 -0.02,1.14 -0.05,1.56 -0.03,0.42 -0.08,0.75 -0.17,0.99 -0.07,0.25 -0.19,0.42 -0.32,0.55 -0.11,0.13 -0.29,0.19 -0.52,0.19 -0.23,0 -0.5,-0.06 -0.82,-0.19 -0.33,-0.13 -0.69,-0.26 -1.1,-0.37 -0.4,-0.13 -0.86,-0.25 -1.37,-0.36 -0.5,-0.12 -1.05,-0.18 -1.64,-0.18 -0.71,0 -1.4,0.15 -2.08,0.42 -0.66,0.29 -1.38,0.75 -2.12,1.41 -0.75,0.65 -1.53,1.52 -2.35,2.59 -0.81,1.08 -1.71,2.39 -2.7,3.95l0 25.02c0,0.23 -0.05,0.42 -0.17,0.58 -0.11,0.14 -0.29,0.29 -0.55,0.4 -0.26,0.1 -0.6,0.19 -1.06,0.25 -0.45,0.06 -1.03,0.08 -1.73,0.08 -0.7,0 -1.26,-0.02 -1.71,-0.08 -0.46,-0.06 -0.82,-0.15 -1.08,-0.25 -0.27,-0.11 -0.46,-0.26 -0.56,-0.4 -0.1,-0.16 -0.14,-0.35 -0.14,-0.58l0 -38.05c0,-0.23 0.04,-0.41 0.12,-0.57 0.09,-0.15 0.25,-0.29 0.51,-0.42 0.26,-0.13 0.58,-0.22 0.98,-0.26 0.39,-0.04 0.92,-0.06 1.57,-0.06 0.62,0 1.14,0.02 1.55,0.06 0.41,0.04 0.73,0.13 0.96,0.26 0.22,0.13 0.39,0.27 0.49,0.42 0.09,0.16 0.15,0.34 0.15,0.57l0 5.54c1.04,-1.53 2.02,-2.77 2.93,-3.73 0.92,-0.96 1.78,-1.72 2.59,-2.27 0.82,-0.55 1.63,-0.92 2.42,-1.14 0.81,-0.21 1.62,-0.31 2.44,-0.31 0.36,0 0.78,0.01 1.24,0.05 0.46,0.05 0.95,0.13 1.46,0.23 0.5,0.12 0.97,0.25 1.37,0.39 0.4,0.15 0.69,0.28 0.86,0.42 0.18,0.15 0.29,0.28 0.34,0.41 0.05,0.12 0.11,0.28 0.16,0.47 0.04,0.2 0.07,0.49 0.08,0.87 0.02,0.39 0.02,0.89 0.02,1.54z"/>
  <path id="23" class="fil0" d="M1248.17 274.66c0,0.99 -0.13,1.7 -0.41,2.15 -0.26,0.43 -0.6,0.65 -1.04,0.65l-5.46 0c0.99,1.01 1.68,2.12 2.07,3.33 0.39,1.21 0.6,2.48 0.6,3.79 0,2.19 -0.35,4.14 -1.06,5.83 -0.7,1.69 -1.71,3.11 -3.03,4.28 -1.31,1.18 -2.87,2.08 -4.67,2.7 -1.8,0.62 -3.81,0.92 -6,0.92 -1.54,0 -3.03,-0.2 -4.41,-0.6 -1.4,-0.42 -2.48,-0.93 -3.25,-1.55 -0.47,0.51 -0.86,1.08 -1.18,1.73 -0.3,0.67 -0.46,1.42 -0.46,2.25 0,1 0.46,1.82 1.37,2.47 0.91,0.66 2.13,1.01 3.65,1.07l9.91 0.42c1.87,0.05 3.6,0.31 5.17,0.77 1.58,0.48 2.95,1.13 4.1,1.99 1.15,0.86 2.05,1.92 2.7,3.16 0.65,1.26 0.96,2.72 0.96,4.37 0,1.75 -0.36,3.41 -1.09,4.98 -0.74,1.57 -1.85,2.96 -3.36,4.15 -1.5,1.2 -3.44,2.15 -5.77,2.83 -2.34,0.69 -5.09,1.04 -8.28,1.04 -3.07,0 -5.69,-0.26 -7.83,-0.78 -2.15,-0.52 -3.93,-1.24 -5.31,-2.13 -1.37,-0.91 -2.38,-1.98 -3,-3.23 -0.62,-1.26 -0.93,-2.63 -0.93,-4.09 0,-0.93 0.12,-1.83 0.34,-2.71 0.23,-0.86 0.57,-1.7 1.03,-2.49 0.47,-0.78 1.04,-1.55 1.74,-2.25 0.69,-0.72 1.48,-1.43 2.39,-2.14 -1.37,-0.71 -2.38,-1.6 -3.04,-2.67 -0.65,-1.06 -0.98,-2.22 -0.98,-3.46 0,-1.71 0.34,-3.26 1.03,-4.61 0.7,-1.35 1.55,-2.56 2.57,-3.64 -0.86,-1.04 -1.55,-2.2 -2.06,-3.52 -0.51,-1.31 -0.76,-2.9 -0.76,-4.76 0,-2.16 0.36,-4.11 1.09,-5.82 0.74,-1.72 1.75,-3.18 3.04,-4.36 1.3,-1.18 2.86,-2.09 4.68,-2.73 1.82,-0.63 3.81,-0.95 5.94,-0.95 1.17,0 2.24,0.07 3.25,0.2 0.99,0.15 1.93,0.34 2.81,0.58l11.49 0c0.49,0 0.84,0.23 1.09,0.69 0.24,0.48 0.36,1.19 0.36,2.14zm-10.91 9.98c0,-2.58 -0.7,-4.6 -2.13,-6.05 -1.43,-1.45 -3.45,-2.17 -6.06,-2.17 -1.36,0 -2.54,0.23 -3.53,0.68 -1,0.44 -1.84,1.06 -2.5,1.84 -0.66,0.79 -1.15,1.7 -1.47,2.73 -0.33,1.02 -0.49,2.1 -0.49,3.23 0,2.49 0.71,4.45 2.13,5.9 1.43,1.43 3.42,2.15 5.99,2.15 1.37,0 2.57,-0.22 3.59,-0.65 1.01,-0.45 1.85,-1.04 2.51,-1.82 0.66,-0.78 1.15,-1.67 1.47,-2.68 0.33,-1.01 0.49,-2.06 0.49,-3.16zm3.46 30.1c0,-1.63 -0.66,-2.88 -2,-3.78 -1.33,-0.88 -3.15,-1.35 -5.42,-1.41l-9.83 -0.33c-0.89,0.7 -1.64,1.37 -2.22,2 -0.57,0.64 -1.02,1.23 -1.37,1.8 -0.33,0.58 -0.56,1.16 -0.69,1.72 -0.13,0.56 -0.19,1.14 -0.19,1.72 0,1.83 0.93,3.21 2.79,4.15 1.86,0.94 4.44,1.41 7.76,1.41 2.1,0 3.88,-0.2 5.29,-0.6 1.43,-0.42 2.57,-0.95 3.43,-1.63 0.88,-0.68 1.5,-1.44 1.89,-2.31 0.38,-0.88 0.56,-1.79 0.56,-2.74z"/>
  <path id="StudierendenRat" class="fil1" d="M397.98 185.09c0,5.55 -1.03,10.38 -3.08,14.58 -2.09,4.16 -4.86,7.64 -8.39,10.44 -3.56,2.78 -7.67,4.89 -12.39,6.3 -4.72,1.42 -9.77,2.12 -15.16,2.12 -3.64,0 -7,-0.31 -10.14,-0.92 -3.11,-0.61 -5.86,-1.33 -8.25,-2.19 -2.38,-0.84 -4.38,-1.73 -6,-2.67 -1.61,-0.95 -2.74,-1.78 -3.47,-2.47 -0.69,-0.72 -1.19,-1.75 -1.5,-3.09 -0.3,-1.33 -0.44,-3.22 -0.44,-5.72 0,-1.69 0.05,-3.08 0.17,-4.22 0.11,-1.14 0.27,-2.05 0.52,-2.78 0.25,-0.69 0.59,-1.19 0.98,-1.5 0.41,-0.3 0.88,-0.44 1.44,-0.44 0.75,0 1.83,0.44 3.22,1.36 1.39,0.89 3.17,1.89 5.33,2.97 2.17,1.09 4.78,2.09 7.81,2.97 3,0.92 6.5,1.37 10.47,1.37 2.61,0 4.94,-0.31 7,-0.92 2.08,-0.64 3.83,-1.5 5.27,-2.64 1.45,-1.14 2.53,-2.53 3.31,-4.19 0.75,-1.67 1.14,-3.53 1.14,-5.58 0,-2.39 -0.64,-4.45 -1.95,-6.14 -1.3,-1.72 -3,-3.22 -5.11,-4.56 -2.08,-1.33 -4.47,-2.58 -7.13,-3.75 -2.64,-1.16 -5.39,-2.39 -8.23,-3.69 -2.83,-1.31 -5.58,-2.78 -8.22,-4.44 -2.66,-1.64 -5.05,-3.61 -7.13,-5.92 -2.11,-2.3 -3.81,-5.03 -5.11,-8.19 -1.31,-3.14 -1.95,-6.92 -1.95,-11.31 0,-5.02 0.95,-9.47 2.81,-13.3 1.86,-3.8 4.39,-6.97 7.55,-9.5 3.19,-2.52 6.92,-4.41 11.22,-5.66 4.31,-1.25 8.89,-1.86 13.72,-1.86 2.47,0 4.97,0.19 7.47,0.58 2.5,0.36 4.83,0.89 7,1.53 2.17,0.66 4.08,1.39 5.78,2.19 1.66,0.84 2.77,1.5 3.33,2.06 0.53,0.53 0.89,1 1.08,1.36 0.2,0.39 0.36,0.89 0.5,1.53 0.14,0.61 0.22,1.38 0.28,2.36 0.06,0.94 0.08,2.11 0.08,3.52 0,1.56 -0.02,2.89 -0.11,3.97 -0.08,1.09 -0.22,1.98 -0.41,2.7 -0.2,0.69 -0.48,1.22 -0.81,1.53 -0.36,0.33 -0.83,0.5 -1.44,0.5 -0.59,0 -1.53,-0.39 -2.84,-1.14 -1.3,-0.75 -2.91,-1.59 -4.8,-2.5 -1.92,-0.89 -4.11,-1.7 -6.61,-2.42 -2.5,-0.75 -5.22,-1.11 -8.22,-1.11 -2.33,0 -4.36,0.28 -6.11,0.86 -1.72,0.56 -3.17,1.36 -4.33,2.36 -1.17,1 -2.06,2.2 -2.61,3.61 -0.59,1.42 -0.87,2.92 -0.87,4.47 0,2.34 0.64,4.36 1.92,6.06 1.28,1.72 3,3.25 5.14,4.58 2.14,1.31 4.58,2.56 7.3,3.72 2.7,1.17 5.47,2.42 8.31,3.7 2.83,1.3 5.61,2.77 8.3,4.44 2.72,1.67 5.14,3.64 7.28,5.94 2.11,2.31 3.83,5 5.14,8.14 1.3,3.11 1.94,6.78 1.94,11z"/>
  <path id="1" class="fil1" d="M456.08 206.81c0,2.38 -0.14,4.22 -0.45,5.49 -0.3,1.28 -0.69,2.17 -1.19,2.67 -0.47,0.53 -1.19,1 -2.14,1.39 -0.97,0.42 -2.08,0.78 -3.36,1.05 -1.25,0.31 -2.64,0.53 -4.14,0.7 -1.5,0.17 -3,0.25 -4.52,0.25 -4.06,0 -7.59,-0.53 -10.59,-1.56 -2.97,-1.02 -5.44,-2.61 -7.41,-4.74 -1.94,-2.14 -3.39,-4.84 -4.31,-8.12 -0.91,-3.24 -1.38,-7.11 -1.38,-11.55l0 -37.19 -8.81 0c-1.03,0 -1.83,-0.63 -2.36,-1.91 -0.55,-1.28 -0.83,-3.42 -0.83,-6.42 0,-1.58 0.05,-2.91 0.19,-4 0.14,-1.08 0.36,-1.94 0.64,-2.58 0.25,-0.61 0.61,-1.05 1.03,-1.33 0.39,-0.28 0.89,-0.42 1.42,-0.42l8.72 0 0 -16.25c0,-0.52 0.13,-1.02 0.44,-1.47 0.31,-0.41 0.86,-0.78 1.64,-1.08 0.78,-0.31 1.86,-0.53 3.19,-0.67 1.34,-0.14 2.97,-0.19 4.95,-0.19 2,0 3.66,0.05 5,0.19 1.33,0.14 2.38,0.36 3.16,0.67 0.75,0.3 1.31,0.67 1.61,1.08 0.33,0.45 0.5,0.95 0.5,1.47l0 16.25 15.75 0c0.55,0 1.03,0.14 1.41,0.42 0.42,0.28 0.75,0.72 1.03,1.33 0.28,0.64 0.47,1.5 0.61,2.58 0.14,1.09 0.2,2.42 0.2,4 0,3 -0.28,5.14 -0.81,6.42 -0.55,1.28 -1.33,1.91 -2.36,1.91l-15.83 0 0 34.11c0,3.97 0.61,6.94 1.86,8.91 1.25,1.98 3.47,2.98 6.67,2.98 1.08,0 2.05,-0.09 2.91,-0.28 0.86,-0.2 1.64,-0.42 2.31,-0.67 0.69,-0.22 1.25,-0.44 1.72,-0.64 0.45,-0.19 0.89,-0.28 1.25,-0.28 0.33,0 0.64,0.09 0.95,0.28 0.27,0.2 0.52,0.56 0.69,1.14 0.14,0.56 0.3,1.33 0.44,2.31 0.14,1 0.2,2.22 0.2,3.75z"/>
  <path id="2" class="fil1" d="M539.67 213.94c0,0.53 -0.14,1 -0.41,1.42 -0.25,0.42 -0.73,0.75 -1.42,1.03 -0.67,0.25 -1.55,0.47 -2.69,0.61 -1.11,0.14 -2.5,0.19 -4.17,0.19 -1.8,0 -3.25,-0.05 -4.36,-0.19 -1.11,-0.14 -2,-0.36 -2.64,-0.61 -0.67,-0.28 -1.11,-0.61 -1.39,-1.03 -0.27,-0.42 -0.41,-0.89 -0.41,-1.42l0 -8.38c-4,4.3 -8.09,7.55 -12.25,9.72 -4.17,2.16 -8.47,3.25 -12.91,3.25 -5,0 -9.23,-0.81 -12.61,-2.45 -3.39,-1.61 -6.14,-3.86 -8.23,-6.66 -2.08,-2.84 -3.58,-6.09 -4.49,-9.81 -0.89,-3.72 -1.34,-8.36 -1.34,-13.88l0 -44.44c0,-0.53 0.14,-1 0.45,-1.42 0.3,-0.41 0.86,-0.74 1.64,-1.02 0.77,-0.25 1.86,-0.47 3.19,-0.61 1.33,-0.14 2.97,-0.2 4.94,-0.2 2,0 3.67,0.06 4.97,0.2 1.31,0.14 2.36,0.36 3.14,0.61 0.81,0.28 1.36,0.61 1.67,1.02 0.33,0.42 0.5,0.89 0.5,1.42l0 41.02c0,3.81 0.25,6.69 0.72,8.69 0.5,2.03 1.25,3.75 2.25,5.17 1,1.44 2.28,2.55 3.83,3.36 1.53,0.78 3.34,1.17 5.42,1.17 2.61,0 5.22,-0.95 7.86,-2.84 2.61,-1.89 5.44,-4.66 8.41,-8.27l0 -48.3c0,-0.53 0.14,-1 0.45,-1.42 0.3,-0.41 0.83,-0.74 1.64,-1.02 0.77,-0.25 1.83,-0.47 3.11,-0.61 1.3,-0.14 2.97,-0.2 4.97,-0.2 2,0 3.66,0.06 4.97,0.2 1.28,0.14 2.33,0.36 3.08,0.61 0.75,0.28 1.31,0.61 1.61,1.02 0.34,0.42 0.5,0.89 0.5,1.42l0 72.65z"/>
  <path id="3" class="fil1" d="M1347.32 213.94c0,0.59 -0.11,1.09 -0.33,1.5 -0.22,0.42 -0.73,0.75 -1.53,1.03 -0.83,0.25 -2,0.45 -3.58,0.56 -1.59,0.11 -3.72,0.16 -6.42,0.16 -2.28,0 -4.08,-0.05 -5.44,-0.16 -1.36,-0.11 -2.45,-0.31 -3.22,-0.62 -0.78,-0.3 -1.34,-0.66 -1.67,-1.13 -0.3,-0.48 -0.58,-1.03 -0.81,-1.67l-9.49 -23.58c-1.14,-2.67 -2.25,-5.05 -3.34,-7.11 -1.08,-2.08 -2.3,-3.8 -3.63,-5.19 -1.34,-1.39 -2.89,-2.42 -4.64,-3.14 -1.72,-0.69 -3.75,-1.06 -6.03,-1.06l-6.69 0 0 40.25c0,0.52 -0.17,1.02 -0.53,1.44 -0.36,0.44 -0.94,0.81 -1.75,1.08 -0.8,0.25 -1.89,0.48 -3.25,0.64 -1.33,0.17 -3.08,0.25 -5.16,0.25 -2.06,0 -3.78,-0.08 -5.17,-0.25 -1.39,-0.16 -2.47,-0.39 -3.28,-0.64 -0.8,-0.27 -1.38,-0.64 -1.69,-1.05 -0.33,-0.45 -0.5,-0.95 -0.5,-1.47l0 -95.65c0,-2.39 0.61,-4.11 1.83,-5.17 1.22,-1.05 2.72,-1.58 4.5,-1.58l27.27 0c2.75,0 5.06,0.06 6.84,0.17 1.77,0.11 3.41,0.25 4.88,0.39 4.23,0.61 8.03,1.63 11.42,3.11 3.39,1.44 6.27,3.36 8.63,5.72 2.37,2.36 4.17,5.14 5.42,8.36 1.25,3.22 1.86,6.91 1.86,11.11 0,3.5 -0.44,6.72 -1.33,9.6 -0.92,2.92 -2.22,5.5 -3.97,7.78 -1.72,2.28 -3.86,4.25 -6.42,5.92 -2.55,1.69 -5.47,3.02 -8.72,4.08 1.58,0.75 3.06,1.67 4.44,2.75 1.39,1.08 2.7,2.41 3.92,3.97 1.22,1.56 2.39,3.31 3.47,5.3 1.09,1.98 2.14,4.23 3.17,6.73l8.91 20.8c0.81,2.05 1.36,3.55 1.61,4.52 0.28,0.95 0.42,1.7 0.42,2.25zm-27.66 -71.51c0,-3.47 -0.78,-6.42 -2.36,-8.78 -1.58,-2.38 -4.17,-4.08 -7.75,-5.05 -1.08,-0.28 -2.31,-0.47 -3.69,-0.64 -1.39,-0.17 -3.31,-0.25 -5.75,-0.25l-9.61 0 0 29.83 10.91 0c3.06,0 5.7,-0.36 7.97,-1.11 2.31,-0.72 4.2,-1.75 5.72,-3.09 1.53,-1.3 2.67,-2.91 3.42,-4.74 0.75,-1.84 1.14,-3.89 1.14,-6.17z"/>
  <path id="4" class="fil1" d="M1423.64 214.19c0,0.75 -0.28,1.34 -0.81,1.78 -0.55,0.44 -1.41,0.75 -2.58,0.95 -1.17,0.19 -2.89,0.27 -5.19,0.27 -2.45,0 -4.22,-0.08 -5.34,-0.27 -1.11,-0.2 -1.91,-0.51 -2.36,-0.95 -0.47,-0.44 -0.69,-1.03 -0.69,-1.78l0 -5.77c-3,3.19 -6.39,5.66 -10.22,7.44 -3.81,1.78 -8.05,2.67 -12.72,2.67 -3.83,0 -7.39,-0.5 -10.61,-1.5 -3.22,-1 -6,-2.5 -8.36,-4.48 -2.36,-1.99 -4.19,-4.44 -5.5,-7.35 -1.3,-2.95 -1.94,-6.36 -1.94,-10.25 0,-4.25 0.83,-7.92 2.47,-11.03 1.67,-3.14 4.14,-5.69 7.42,-7.75 3.27,-2.02 7.33,-3.52 12.22,-4.5 4.86,-0.97 10.52,-1.47 16.96,-1.47l7.09 0 0 -4.39c0,-2.27 -0.23,-4.27 -0.7,-6 -0.44,-1.69 -1.22,-3.13 -2.28,-4.27 -1.05,-1.14 -2.44,-1.97 -4.22,-2.53 -1.75,-0.53 -3.94,-0.8 -6.52,-0.8 -3.42,0 -6.47,0.38 -9.14,1.13 -2.69,0.75 -5.06,1.62 -7.11,2.53 -2.06,0.92 -3.78,1.78 -5.17,2.53 -1.38,0.75 -2.5,1.14 -3.36,1.14 -0.61,0 -1.13,-0.2 -1.58,-0.56 -0.47,-0.39 -0.86,-0.94 -1.14,-1.64 -0.3,-0.69 -0.53,-1.58 -0.69,-2.61 -0.17,-1.03 -0.25,-2.16 -0.25,-3.39 0,-1.69 0.14,-3.02 0.41,-4 0.25,-0.97 0.78,-1.83 1.53,-2.63 0.78,-0.78 2.08,-1.64 4,-2.59 1.89,-0.94 4.11,-1.83 6.67,-2.63 2.55,-0.84 5.33,-1.5 8.33,-2 3.02,-0.53 6.14,-0.78 9.33,-0.78 5.69,0 10.55,0.55 14.61,1.67 4.02,1.11 7.36,2.83 9.94,5.13 2.61,2.31 4.53,5.28 5.72,8.92 1.19,3.61 1.78,7.94 1.78,12.91l0 48.85zm-20.16 -31.16l-7.81 0c-3.3,0 -6.11,0.25 -8.44,0.72 -2.33,0.5 -4.22,1.23 -5.69,2.23 -1.48,0.97 -2.53,2.13 -3.2,3.52 -0.69,1.39 -1.03,2.98 -1.03,4.75 0,3.06 0.98,5.45 2.89,7.17 1.92,1.75 4.58,2.61 8,2.61 2.86,0 5.5,-0.72 7.92,-2.2 2.41,-1.47 4.86,-3.61 7.36,-6.44l0 -12.36z"/>
  <path id="5" class="fil0" d="M629.1 213.94c0,0.59 -0.14,1.09 -0.42,1.5 -0.25,0.42 -0.72,0.75 -1.36,1.03 -0.66,0.25 -1.55,0.45 -2.66,0.56 -1.11,0.11 -2.48,0.16 -4.09,0.16 -1.75,0 -3.16,-0.05 -4.24,-0.16 -1.09,-0.11 -1.95,-0.31 -2.64,-0.56 -0.67,-0.28 -1.17,-0.64 -1.45,-1.03 -0.3,-0.41 -0.47,-0.91 -0.47,-1.52l0 -8.09c-3.72,4.03 -7.67,7.14 -11.75,9.36 -4.11,2.22 -8.63,3.34 -13.63,3.34 -5.53,0 -10.22,-1.09 -14.03,-3.23 -3.83,-2.13 -6.94,-5.02 -9.36,-8.66 -2.41,-3.61 -4.16,-7.86 -5.25,-12.72 -1.08,-4.86 -1.64,-9.97 -1.64,-15.33 0,-6.44 0.7,-12.25 2.09,-17.41 1.39,-5.14 3.39,-9.53 6.05,-13.17 2.67,-3.64 5.97,-6.41 9.94,-8.39 3.95,-1.94 8.5,-2.91 13.67,-2.91 4.05,0 7.75,0.83 11.05,2.47 3.33,1.67 6.61,4.08 9.86,7.28l0 -39.25c0,-0.55 0.14,-1.02 0.45,-1.47 0.3,-0.41 0.83,-0.8 1.63,-1.08 0.78,-0.31 1.84,-0.53 3.11,-0.69 1.31,-0.17 2.98,-0.25 4.98,-0.25 2,0 3.66,0.08 4.97,0.25 1.27,0.16 2.33,0.38 3.08,0.69 0.75,0.28 1.3,0.67 1.61,1.08 0.33,0.45 0.5,0.92 0.5,1.47l0 106.73zm-20.33 -48.52c-2.92,-3.69 -5.75,-6.49 -8.41,-8.47 -2.7,-1.94 -5.5,-2.91 -8.45,-2.91 -2.64,0 -4.94,0.67 -6.86,2 -1.94,1.33 -3.47,3.08 -4.63,5.3 -1.17,2.25 -2.06,4.72 -2.62,7.45 -0.58,2.74 -0.86,5.55 -0.86,8.41 0,3.06 0.25,6 0.73,8.86 0.5,2.89 1.3,5.44 2.41,7.69 1.11,2.25 2.59,4.06 4.45,5.42 1.83,1.36 4.16,2.03 6.99,2.03 1.39,0 2.78,-0.2 4.11,-0.62 1.34,-0.41 2.67,-1.05 4.06,-1.99 1.39,-0.92 2.8,-2.12 4.28,-3.61 1.47,-1.5 3.08,-3.31 4.8,-5.48l0 -24.08z"/>
  <path id="6" class="fil0" d="M670.2 213.94c0,0.53 -0.16,1 -0.5,1.42 -0.3,0.42 -0.86,0.75 -1.66,1.03 -0.78,0.25 -1.84,0.47 -3.11,0.61 -1.31,0.14 -2.97,0.19 -4.98,0.19 -1.99,0 -3.66,-0.05 -4.97,-0.19 -1.27,-0.14 -2.33,-0.36 -3.11,-0.61 -0.8,-0.28 -1.36,-0.61 -1.66,-1.03 -0.34,-0.42 -0.5,-0.89 -0.5,-1.42l0 -72.48c0,-0.53 0.16,-1 0.5,-1.42 0.3,-0.42 0.86,-0.78 1.66,-1.05 0.78,-0.31 1.84,-0.53 3.11,-0.7 1.31,-0.17 2.98,-0.25 4.97,-0.25 2.01,0 3.67,0.08 4.98,0.25 1.27,0.17 2.33,0.39 3.11,0.7 0.8,0.27 1.36,0.63 1.66,1.05 0.34,0.42 0.5,0.89 0.5,1.42l0 72.48zm1.67 -97.31c0,4.14 -0.83,6.97 -2.53,8.55 -1.69,1.59 -4.8,2.36 -9.39,2.36 -4.61,0 -7.74,-0.75 -9.33,-2.27 -1.61,-1.53 -2.41,-4.28 -2.41,-8.22 0,-4.14 0.83,-7 2.5,-8.61 1.64,-1.59 4.77,-2.39 9.41,-2.39 4.56,0 7.67,0.78 9.31,2.33 1.63,1.53 2.44,4.28 2.44,8.25z"/>
  <path id="7" class="fil0" d="M757.63 175.53c0,2.5 -0.56,4.34 -1.67,5.53 -1.11,1.2 -2.63,1.81 -4.61,1.81l-44.21 0c0,3.08 0.36,5.86 1.11,8.38 0.72,2.5 1.89,4.64 3.47,6.39 1.61,1.75 3.67,3.08 6.2,4 2.52,0.92 5.52,1.39 9.05,1.39 3.58,0 6.72,-0.25 9.44,-0.78 2.7,-0.53 5.06,-1.08 7.03,-1.72 1.97,-0.64 3.61,-1.2 4.91,-1.72 1.31,-0.53 2.36,-0.78 3.17,-0.78 0.5,0 0.92,0.08 1.22,0.28 0.34,0.19 0.61,0.53 0.84,1.02 0.19,0.48 0.36,1.17 0.44,2.06 0.08,0.89 0.11,2.03 0.11,3.36 0,1.2 -0.03,2.22 -0.08,3.05 -0.06,0.84 -0.14,1.56 -0.25,2.14 -0.11,0.62 -0.25,1.11 -0.47,1.5 -0.23,0.42 -0.5,0.81 -0.87,1.2 -0.36,0.36 -1.3,0.89 -2.88,1.55 -1.59,0.67 -3.59,1.31 -6.03,1.95 -2.44,0.64 -5.22,1.19 -8.36,1.66 -3.14,0.48 -6.5,0.73 -10.08,0.73 -6.47,0 -12.11,-0.81 -16.97,-2.45 -4.83,-1.61 -8.89,-4.08 -12.16,-7.39 -3.25,-3.3 -5.67,-7.49 -7.28,-12.52 -1.58,-5.06 -2.39,-10.97 -2.39,-17.75 0,-6.44 0.83,-12.25 2.53,-17.44 1.66,-5.16 4.11,-9.55 7.33,-13.16 3.19,-3.61 7.08,-6.36 11.66,-8.25 4.61,-1.92 9.78,-2.86 15.53,-2.86 6.08,0 11.27,0.89 15.58,2.69 4.33,1.78 7.86,4.28 10.64,7.45 2.75,3.16 4.8,6.94 6.11,11.27 1.3,4.33 1.94,9.05 1.94,14.16l0 3.25zm-19.83 -5.83c0.17,-5.75 -1,-10.27 -3.47,-13.55 -2.47,-3.31 -6.28,-4.94 -11.44,-4.94 -2.61,0 -4.89,0.5 -6.81,1.47 -1.94,0.97 -3.55,2.28 -4.83,3.94 -1.28,1.67 -2.25,3.61 -2.92,5.86 -0.69,2.28 -1.08,4.67 -1.19,7.22l30.66 0z"/>
  <path id="8" class="fil0" d="M821.2 148.07c0,1.94 -0.05,3.55 -0.17,4.8 -0.11,1.25 -0.27,2.22 -0.47,2.92 -0.22,0.69 -0.53,1.19 -0.86,1.47 -0.36,0.28 -0.8,0.39 -1.36,0.39 -0.42,0 -0.92,-0.08 -1.47,-0.28 -0.53,-0.19 -1.14,-0.39 -1.83,-0.61 -0.67,-0.22 -1.42,-0.42 -2.23,-0.61 -0.83,-0.2 -1.72,-0.28 -2.69,-0.28 -1.14,0 -2.28,0.22 -3.42,0.7 -1.14,0.47 -2.33,1.16 -3.55,2.16 -1.22,0.97 -2.5,2.28 -3.83,3.89 -1.34,1.64 -2.75,3.64 -4.28,6.03l0 45.29c0,0.53 -0.17,1 -0.5,1.42 -0.31,0.42 -0.86,0.75 -1.67,1.03 -0.77,0.25 -1.83,0.47 -3.11,0.61 -1.3,0.14 -2.97,0.19 -4.97,0.19 -2,0 -3.66,-0.05 -4.97,-0.19 -1.28,-0.14 -2.33,-0.36 -3.11,-0.61 -0.81,-0.28 -1.36,-0.61 -1.67,-1.03 -0.33,-0.42 -0.5,-0.89 -0.5,-1.42l0 -72.65c0,-0.53 0.14,-1 0.42,-1.42 0.25,-0.41 0.75,-0.74 1.44,-1.02 0.73,-0.25 1.62,-0.47 2.73,-0.61 1.11,-0.14 2.52,-0.2 4.19,-0.2 1.75,0 3.17,0.06 4.3,0.2 1.14,0.14 2.03,0.36 2.67,0.61 0.61,0.28 1.06,0.61 1.33,1.02 0.28,0.42 0.42,0.89 0.42,1.42l0 9.05c1.89,-2.72 3.69,-4.94 5.36,-6.69 1.69,-1.75 3.31,-3.16 4.81,-4.19 1.52,-1.03 3.05,-1.75 4.58,-2.14 1.5,-0.42 3.02,-0.61 4.55,-0.61 0.7,0 1.47,0.03 2.28,0.11 0.8,0.08 1.67,0.22 2.53,0.42 0.86,0.19 1.64,0.41 2.27,0.63 0.67,0.25 1.14,0.51 1.45,0.78 0.28,0.28 0.5,0.59 0.64,0.89 0.14,0.33 0.25,0.78 0.36,1.36 0.11,0.56 0.19,1.42 0.25,2.56 0.05,1.14 0.08,2.66 0.08,4.61z"/>
  <path id="9" class="fil0" d="M898.91 175.53c0,2.5 -0.56,4.34 -1.67,5.53 -1.11,1.2 -2.64,1.81 -4.61,1.81l-44.21 0c0,3.08 0.36,5.86 1.11,8.38 0.72,2.5 1.89,4.64 3.47,6.39 1.61,1.75 3.67,3.08 6.19,4 2.53,0.92 5.53,1.39 9.06,1.39 3.58,0 6.72,-0.25 9.44,-0.78 2.69,-0.53 5.05,-1.08 7.03,-1.72 1.97,-0.64 3.61,-1.2 4.91,-1.72 1.31,-0.53 2.36,-0.78 3.17,-0.78 0.5,0 0.91,0.08 1.22,0.28 0.33,0.19 0.61,0.53 0.83,1.02 0.2,0.48 0.36,1.17 0.45,2.06 0.08,0.89 0.11,2.03 0.11,3.36 0,1.2 -0.03,2.22 -0.08,3.05 -0.06,0.84 -0.14,1.56 -0.26,2.14 -0.11,0.62 -0.24,1.11 -0.47,1.5 -0.22,0.42 -0.5,0.81 -0.86,1.2 -0.36,0.36 -1.3,0.89 -2.89,1.55 -1.58,0.67 -3.58,1.31 -6.02,1.95 -2.45,0.64 -5.22,1.19 -8.36,1.66 -3.14,0.48 -6.5,0.73 -10.08,0.73 -6.47,0 -12.11,-0.81 -16.97,-2.45 -4.83,-1.61 -8.89,-4.08 -12.17,-7.39 -3.25,-3.3 -5.66,-7.49 -7.27,-12.52 -1.59,-5.06 -2.39,-10.97 -2.39,-17.75 0,-6.44 0.83,-12.25 2.53,-17.44 1.66,-5.16 4.11,-9.55 7.33,-13.16 3.19,-3.61 7.08,-6.36 11.66,-8.25 4.61,-1.92 9.78,-2.86 15.53,-2.86 6.08,0 11.27,0.89 15.58,2.69 4.33,1.78 7.86,4.28 10.63,7.45 2.75,3.16 4.81,6.94 6.11,11.27 1.31,4.33 1.95,9.05 1.95,14.16l0 3.25zm-19.83 -5.83c0.17,-5.75 -1,-10.27 -3.47,-13.55 -2.48,-3.31 -6.28,-4.94 -11.44,-4.94 -2.62,0 -4.89,0.5 -6.81,1.47 -1.94,0.97 -3.55,2.28 -4.83,3.94 -1.28,1.67 -2.25,3.61 -2.92,5.86 -0.69,2.28 -1.08,4.67 -1.19,7.22l30.66 0z"/>
  <path id="10" class="fil0" d="M985.14 213.94c0,0.53 -0.17,1 -0.5,1.42 -0.3,0.42 -0.86,0.75 -1.61,1.03 -0.78,0.25 -1.83,0.47 -3.17,0.61 -1.33,0.14 -2.97,0.19 -4.91,0.19 -2.03,0 -3.7,-0.05 -5.03,-0.19 -1.33,-0.14 -2.39,-0.36 -3.16,-0.61 -0.75,-0.28 -1.31,-0.61 -1.62,-1.03 -0.33,-0.42 -0.49,-0.89 -0.49,-1.42l0 -41.41c0,-3.52 -0.25,-6.3 -0.78,-8.3 -0.5,-2.03 -1.25,-3.75 -2.22,-5.17 -0.98,-1.44 -2.25,-2.55 -3.78,-3.35 -1.56,-0.78 -3.33,-1.17 -5.39,-1.17 -2.61,0 -5.22,0.94 -7.89,2.86 -2.63,1.89 -5.41,4.66 -8.27,8.28l0 48.26c0,0.53 -0.17,1 -0.5,1.42 -0.31,0.42 -0.86,0.75 -1.67,1.03 -0.78,0.25 -1.83,0.47 -3.11,0.61 -1.31,0.14 -2.97,0.19 -4.97,0.19 -2,0 -3.67,-0.05 -4.97,-0.19 -1.28,-0.14 -2.34,-0.36 -3.11,-0.61 -0.81,-0.28 -1.36,-0.61 -1.67,-1.03 -0.33,-0.42 -0.5,-0.89 -0.5,-1.42l0 -72.65c0,-0.53 0.14,-1 0.42,-1.42 0.25,-0.41 0.75,-0.74 1.44,-1.02 0.72,-0.25 1.61,-0.47 2.72,-0.61 1.11,-0.14 2.53,-0.2 4.2,-0.2 1.75,0 3.16,0.06 4.3,0.2 1.14,0.14 2.03,0.36 2.67,0.61 0.61,0.28 1.05,0.61 1.33,1.02 0.28,0.42 0.42,0.89 0.42,1.42l0 8.39c4,-4.33 8.08,-7.56 12.25,-9.72 4.13,-2.17 8.47,-3.25 12.96,-3.25 4.95,0 9.11,0.8 12.5,2.44 3.39,1.61 6.11,3.84 8.22,6.64 2.09,2.78 3.59,6.05 4.5,9.8 0.92,3.75 1.39,8.25 1.39,13.5l0 44.85z"/>
  <path id="11" class="fil0" d="M1074.07 213.94c0,0.59 -0.14,1.09 -0.42,1.5 -0.25,0.42 -0.72,0.75 -1.36,1.03 -0.67,0.25 -1.55,0.45 -2.67,0.56 -1.11,0.11 -2.47,0.16 -4.08,0.16 -1.75,0 -3.16,-0.05 -4.25,-0.16 -1.08,-0.11 -1.94,-0.31 -2.64,-0.56 -0.66,-0.28 -1.16,-0.64 -1.44,-1.03 -0.31,-0.41 -0.47,-0.91 -0.47,-1.52l0 -8.09c-3.72,4.03 -7.67,7.14 -11.75,9.36 -4.11,2.22 -8.64,3.34 -13.64,3.34 -5.52,0 -10.22,-1.09 -14.02,-3.23 -3.83,-2.13 -6.94,-5.02 -9.36,-8.66 -2.42,-3.61 -4.17,-7.86 -5.25,-12.72 -1.08,-4.86 -1.64,-9.97 -1.64,-15.33 0,-6.44 0.7,-12.25 2.09,-17.41 1.38,-5.14 3.38,-9.53 6.05,-13.17 2.67,-3.64 5.97,-6.41 9.94,-8.39 3.95,-1.94 8.5,-2.91 13.67,-2.91 4.05,0 7.75,0.83 11.05,2.47 3.33,1.67 6.61,4.08 9.86,7.28l0 -39.25c0,-0.55 0.14,-1.02 0.44,-1.47 0.31,-0.41 0.84,-0.8 1.64,-1.08 0.78,-0.31 1.83,-0.53 3.11,-0.69 1.31,-0.17 2.97,-0.25 4.97,-0.25 2,0 3.67,0.08 4.98,0.25 1.27,0.16 2.33,0.38 3.08,0.69 0.75,0.28 1.3,0.67 1.61,1.08 0.33,0.45 0.5,0.92 0.5,1.47l0 106.73zm-20.33 -48.52c-2.92,-3.69 -5.75,-6.49 -8.42,-8.47 -2.69,-1.94 -5.49,-2.91 -8.44,-2.91 -2.64,0 -4.94,0.67 -6.86,2 -1.94,1.33 -3.47,3.08 -4.64,5.3 -1.16,2.25 -2.05,4.72 -2.61,7.45 -0.58,2.74 -0.86,5.55 -0.86,8.41 0,3.06 0.25,6 0.72,8.86 0.5,2.89 1.31,5.44 2.42,7.69 1.11,2.25 2.58,4.06 4.44,5.42 1.84,1.36 4.17,2.03 7,2.03 1.39,0 2.78,-0.2 4.11,-0.62 1.34,-0.41 2.67,-1.05 4.06,-1.99 1.39,-0.92 2.8,-2.12 4.27,-3.61 1.48,-1.5 3.09,-3.31 4.81,-5.48l0 -24.08z"/>
  <path id="12" class="fil0" d="M1161.66 175.53c0,2.5 -0.55,4.34 -1.66,5.53 -1.12,1.2 -2.64,1.81 -4.61,1.81l-44.22 0c0,3.08 0.36,5.86 1.11,8.38 0.73,2.5 1.89,4.64 3.47,6.39 1.62,1.75 3.67,3.08 6.2,4 2.53,0.92 5.52,1.39 9.05,1.39 3.58,0 6.72,-0.25 9.44,-0.78 2.7,-0.53 5.06,-1.08 7.03,-1.72 1.97,-0.64 3.61,-1.2 4.92,-1.72 1.3,-0.53 2.36,-0.78 3.16,-0.78 0.5,0 0.92,0.08 1.22,0.28 0.34,0.19 0.62,0.53 0.84,1.02 0.19,0.48 0.36,1.17 0.44,2.06 0.08,0.89 0.11,2.03 0.11,3.36 0,1.2 -0.03,2.22 -0.08,3.05 -0.06,0.84 -0.14,1.56 -0.25,2.14 -0.11,0.62 -0.25,1.11 -0.47,1.5 -0.22,0.42 -0.5,0.81 -0.86,1.2 -0.36,0.36 -1.31,0.89 -2.89,1.55 -1.58,0.67 -3.58,1.31 -6.03,1.95 -2.44,0.64 -5.22,1.19 -8.36,1.66 -3.14,0.48 -6.5,0.73 -10.08,0.73 -6.47,0 -12.11,-0.81 -16.97,-2.45 -4.83,-1.61 -8.89,-4.08 -12.16,-7.39 -3.25,-3.3 -5.67,-7.49 -7.28,-12.52 -1.58,-5.06 -2.39,-10.97 -2.39,-17.75 0,-6.44 0.84,-12.25 2.53,-17.44 1.67,-5.16 4.11,-9.55 7.33,-13.16 3.2,-3.61 7.08,-6.36 11.67,-8.25 4.61,-1.92 9.77,-2.86 15.52,-2.86 6.08,0 11.28,0.89 15.58,2.69 4.33,1.78 7.86,4.28 10.64,7.45 2.75,3.16 4.8,6.94 6.11,11.27 1.3,4.33 1.94,9.05 1.94,14.16l0 3.25zm-19.83 -5.83c0.17,-5.75 -1,-10.27 -3.47,-13.55 -2.47,-3.31 -6.28,-4.94 -11.44,-4.94 -2.61,0 -4.89,0.5 -6.8,1.47 -1.95,0.97 -3.56,2.28 -4.84,3.94 -1.28,1.67 -2.25,3.61 -2.91,5.86 -0.7,2.28 -1.09,4.67 -1.2,7.22l30.66 0z"/>
  <path id="13" class="fil0" d="M1247.9 213.94c0,0.53 -0.17,1 -0.51,1.42 -0.3,0.42 -0.86,0.75 -1.61,1.03 -0.77,0.25 -1.83,0.47 -3.16,0.61 -1.33,0.14 -2.97,0.19 -4.92,0.19 -2.03,0 -3.69,-0.05 -5.02,-0.19 -1.34,-0.14 -2.39,-0.36 -3.17,-0.61 -0.75,-0.28 -1.3,-0.61 -1.61,-1.03 -0.33,-0.42 -0.5,-0.89 -0.5,-1.42l0 -41.41c0,-3.52 -0.25,-6.3 -0.78,-8.3 -0.5,-2.03 -1.25,-3.75 -2.22,-5.17 -0.97,-1.44 -2.25,-2.55 -3.78,-3.35 -1.55,-0.78 -3.33,-1.17 -5.39,-1.17 -2.61,0 -5.22,0.94 -7.88,2.86 -2.64,1.89 -5.42,4.66 -8.28,8.28l0 48.26c0,0.53 -0.17,1 -0.5,1.42 -0.3,0.42 -0.86,0.75 -1.66,1.03 -0.78,0.25 -1.84,0.47 -3.11,0.61 -1.31,0.14 -2.98,0.19 -4.98,0.19 -2,0 -3.66,-0.05 -4.97,-0.19 -1.28,-0.14 -2.33,-0.36 -3.11,-0.61 -0.8,-0.28 -1.36,-0.61 -1.66,-1.03 -0.34,-0.42 -0.5,-0.89 -0.5,-1.42l0 -72.65c0,-0.53 0.13,-1 0.41,-1.42 0.25,-0.41 0.75,-0.74 1.45,-1.02 0.72,-0.25 1.61,-0.47 2.72,-0.61 1.11,-0.14 2.53,-0.2 4.19,-0.2 1.75,0 3.17,0.06 4.31,0.2 1.14,0.14 2.02,0.36 2.66,0.61 0.61,0.28 1.06,0.61 1.34,1.02 0.27,0.42 0.41,0.89 0.41,1.42l0 8.39c4,-4.33 8.08,-7.56 12.25,-9.72 4.14,-2.17 8.47,-3.25 12.97,-3.25 4.94,0 9.11,0.8 12.5,2.44 3.38,1.61 6.11,3.84 8.22,6.64 2.08,2.78 3.58,6.05 4.5,9.8 0.91,3.75 1.39,8.25 1.39,13.5l0 44.85z"/>
  <path id="14" class="fil0" d="M1485.52 206.81c0,2.38 -0.14,4.22 -0.45,5.49 -0.3,1.28 -0.69,2.17 -1.19,2.67 -0.47,0.53 -1.2,1 -2.14,1.39 -0.97,0.42 -2.08,0.78 -3.36,1.05 -1.25,0.31 -2.64,0.53 -4.14,0.7 -1.5,0.17 -3,0.25 -4.53,0.25 -4.05,0 -7.58,-0.53 -10.58,-1.56 -2.97,-1.02 -5.44,-2.61 -7.41,-4.74 -1.95,-2.14 -3.39,-4.84 -4.31,-8.12 -0.91,-3.24 -1.39,-7.11 -1.39,-11.55l0 -37.19 -8.8 0c-1.03,0 -1.83,-0.63 -2.36,-1.91 -0.56,-1.28 -0.83,-3.42 -0.83,-6.42 0,-1.58 0.05,-2.91 0.19,-4 0.14,-1.08 0.36,-1.94 0.64,-2.58 0.25,-0.61 0.61,-1.05 1.03,-1.33 0.39,-0.28 0.89,-0.42 1.41,-0.42l8.72 0 0 -16.25c0,-0.52 0.14,-1.02 0.45,-1.47 0.3,-0.41 0.86,-0.78 1.64,-1.08 0.77,-0.31 1.86,-0.53 3.19,-0.67 1.33,-0.14 2.97,-0.19 4.94,-0.19 2,0 3.67,0.05 5,0.19 1.34,0.14 2.39,0.36 3.17,0.67 0.75,0.3 1.3,0.67 1.61,1.08 0.33,0.45 0.5,0.95 0.5,1.47l0 16.25 15.75 0c0.55,0 1.02,0.14 1.41,0.42 0.42,0.28 0.75,0.72 1.03,1.33 0.28,0.64 0.47,1.5 0.61,2.58 0.14,1.09 0.2,2.42 0.2,4 0,3 -0.28,5.14 -0.81,6.42 -0.55,1.28 -1.33,1.91 -2.36,1.91l-15.83 0 0 34.11c0,3.97 0.61,6.94 1.86,8.91 1.25,1.98 3.47,2.98 6.67,2.98 1.08,0 2.05,-0.09 2.91,-0.28 0.86,-0.2 1.64,-0.42 2.31,-0.67 0.69,-0.22 1.25,-0.44 1.72,-0.64 0.44,-0.19 0.89,-0.28 1.25,-0.28 0.33,0 0.64,0.09 0.94,0.28 0.28,0.2 0.53,0.56 0.7,1.14 0.14,0.56 0.3,1.33 0.44,2.31 0.14,1 0.2,2.22 0.2,3.75z"/>
 </g>
 <g id="Ringe_Beschneidungsbalken">
  <metadata id="CorelCorpID_1Corel-Layer"/>
  <path class="fil2" d="M194.12 243.36c-3.61,-2.48 -6.74,-5.61 -9.22,-9.23l-20.16 12.35c4.45,6.78 10.26,12.59 17.03,17.04l12.35 -20.16z"/>
  <path class="fil2" d="M116.38 218.48c0.65,14.65 4.52,28.48 10.92,40.77l20.76 -11.28c-4.68,-9.1 -7.52,-19.3 -8.06,-30.11l-23.62 0.62z"/>
  <path class="fil2" d="M93.2 150.49c-9.24,17.53 -14.8,37.31 -15.6,58.31l23.61 0.61c0.7,-17.14 5.23,-33.3 12.75,-47.65l-20.76 -11.27z"/>
  <path class="fil2" d="M285.03 348.41c-19.58,10.36 -41.68,16.58 -65.16,17.45l0.62 23.61c27.32,-0.97 53.05,-8.21 75.81,-20.3l-11.27 -20.76z"/>
  <path class="fil2" d="M207.77 38.79c-27.32,0.98 -53.05,8.21 -75.81,20.3l11.27 20.76c19.58,-10.37 41.69,-16.57 65.16,-17.45l-0.62 -23.61z"/>
  <path class="fil2" d="M220.88 23.62c29.81,1.04 57.87,8.92 82.67,22.12l11.27 -20.75c-27.98,-14.93 -59.67,-23.84 -93.32,-24.98l-0.62 23.61z"/>
  <path class="fil2" d="M207.38 404.66c-29.8,-1.04 -57.87,-8.93 -82.67,-22.14l-11.28 20.76c27.99,14.94 59.68,23.86 93.33,25l0.62 -23.62z"/>
  <path class="fil3" d="M229.45 246.09c-3.87,1.86 -8.12,3.04 -12.61,3.37l0.62 23.63c8.34,-0.46 16.21,-2.66 23.27,-6.23l-11.28 -20.77z"/>
  <path class="fil3" d="M210.8 155.19c-8.33,0.46 -16.21,2.66 -23.26,6.23l11.28 20.76c3.86,-1.85 8.11,-3.03 12.6,-3.37l-0.62 -23.62z"/>
  <path class="fil3" d="M209.4 327.07c-17.14,-0.7 -33.3,-5.24 -47.65,-12.76l-11.27 20.76c17.53,9.25 37.31,14.81 58.31,15.62l0.61 -23.62z"/>
  <path class="fil3" d="M38.79 220.5c0.98,27.32 8.21,53.04 20.3,75.8l20.76 -11.28c-10.36,-19.57 -16.57,-41.67 -17.44,-65.14l-23.62 0.62z"/>
  <path class="fil3" d="M218.86 101.2c17.15,0.71 33.3,5.23 47.64,12.75l11.28 -20.75c-17.53,-9.25 -37.31,-14.8 -58.3,-15.61l-0.62 23.61z"/>
  <path class="fil3" d="M161.5 131.65c-11.98,7.67 -22.19,17.87 -29.85,29.85l20.14 12.35c5.71,-8.82 13.24,-16.35 22.05,-22.06l-12.34 -20.14z"/>
  <path class="fil3" d="M24.99 113.44c-14.93,27.99 -23.84,59.68 -24.98,93.34l23.61 0.61c1.04,-29.8 8.94,-57.86 22.14,-82.67l-20.77 -11.28z"/>
  <path class="fil4" d="M181.78 164.75c-6.78,4.45 -12.59,10.25 -17.03,17.03l20.15 12.35c2.48,-3.61 5.61,-6.75 9.22,-9.23l-12.34 -20.15z"/>
  <path class="fil4" d="M247.98 280.21c-9.11,4.68 -19.31,7.54 -30.13,8.07l0.62 23.61c14.67,-0.64 28.49,-4.51 40.79,-10.91l-11.28 -20.77z"/>
  <path class="fil4" d="M153.56 309.57c-14.02,-8.93 -25.95,-20.85 -34.87,-34.88l-20.14 12.34c10.87,17.2 25.48,31.81 42.67,42.68l12.34 -20.14z"/>
  <path class="fil4" d="M209.8 116.38c-14.67,0.65 -28.5,4.52 -40.79,10.92l11.27 20.76c9.11,-4.68 19.32,-7.53 30.13,-8.07l-0.61 -23.61z"/>
  <path class="fil4" d="M59.1 131.97c-12.09,22.76 -19.32,48.49 -20.3,75.81l23.62 0.62c0.87,-23.47 7.08,-45.58 17.44,-65.16l-20.76 -11.27z"/>
  <path class="fil4" d="M0 221.51c1.14,33.65 10.05,65.33 24.98,93.31l20.76 -11.27c-13.2,-24.81 -21.08,-52.86 -22.13,-82.66l-23.61 0.62z"/>
  <path class="fil5" d="M211.42 249.46c-4.49,-0.34 -8.74,-1.52 -12.61,-3.38l-11.28 20.77c7.06,3.58 14.94,5.78 23.27,6.24l0.62 -23.63z"/>
  <path class="fil5" d="M216.84 178.81c4.49,0.34 8.74,1.52 12.6,3.37l11.28 -20.77c-7.05,-3.56 -14.93,-5.76 -23.26,-6.22l-0.62 23.62z"/>
  <path class="fil5" d="M127.3 169.01c-6.41,12.3 -10.27,26.13 -10.91,40.8l23.61 0.61c0.53,-10.81 3.39,-21.02 8.07,-30.13l-20.77 -11.28z"/>
  <path class="fil5" d="M77.59 219.49c0.81,20.99 6.36,40.76 15.6,58.28l20.76 -11.27c-7.51,-14.34 -12.04,-30.49 -12.75,-47.63l-23.61 0.62z"/>
  <path class="fil5" d="M120.95 65.46c-22.4,14.07 -41.41,33.09 -55.48,55.5l20.14 12.34c12.12,-19.24 28.45,-35.57 47.68,-47.7l-12.34 -20.14z"/>
  <path class="fil5" d="M113.02 375.75c-24.45,-15.33 -45.18,-36.06 -60.51,-60.52l-20.14 12.34c17.28,27.64 40.69,51.04 68.31,68.33l12.34 -20.15z"/>
  <path class="fil6" d="M141.23 98.56c-17.2,10.87 -31.8,25.47 -42.67,42.68l20.14 12.33c8.92,-14.02 20.84,-25.95 34.87,-34.88l-12.34 -20.13z"/>
  <path class="fil6" d="M173.84 276.47c-8.82,-5.71 -16.35,-13.23 -22.05,-22.05l-20.15 12.34c7.66,11.99 17.87,22.19 29.85,29.86l12.35 -20.15z"/>
  <path class="fil6" d="M155.18 217.47c0.47,8.33 2.66,16.2 6.23,23.25l20.77 -11.28c-1.85,-3.86 -3.02,-8.11 -3.37,-12.59l-23.63 0.62z"/>
  <path class="fil6" d="M208.39 365.87c-23.48,-0.88 -45.58,-7.09 -65.16,-17.45l-11.28 20.76c22.76,12.09 48.5,19.33 75.82,20.3l0.62 -23.61z"/>
  <path class="fil6" d="M219.87 62.41c23.48,0.87 45.58,7.07 65.16,17.43l11.27 -20.75c-22.76,-12.08 -48.49,-19.31 -75.81,-20.29l-0.62 23.61z"/>
  <path class="fil6" d="M206.77 0c-33.66,1.14 -65.35,10.05 -93.34,24.99l11.28 20.76c24.8,-13.21 52.87,-21.1 82.67,-22.14l-0.61 -23.61z"/>
  <path class="fil6" d="M303.55 382.52c-24.8,13.2 -52.86,21.09 -82.67,22.13l0.62 23.61c33.66,-1.13 65.34,-10.05 93.33,-24.98l-11.28 -20.76z"/>
  <path class="fil7" d="M210.41 288.28c-10.81,-0.54 -21.02,-3.39 -30.13,-8.08l-11.28 20.77c12.3,6.41 26.13,10.28 40.79,10.92l0.62 -23.61z"/>
  <path class="fil7" d="M161.42 187.54c-3.57,7.06 -5.77,14.94 -6.23,23.27l23.62 0.62c0.34,-4.49 1.52,-8.74 3.38,-12.61l-20.77 -11.28z"/>
  <path class="fil7" d="M217.85 139.99c10.82,0.54 21.02,3.39 30.13,8.06l11.27 -20.74c-12.3,-6.41 -26.12,-10.28 -40.78,-10.93l-0.62 23.61z"/>
  <path class="fil7" d="M266.51 314.31c-14.35,7.52 -30.5,12.05 -47.65,12.76l0.62 23.61c20.99,-0.81 40.77,-6.36 58.3,-15.61l-11.27 -20.76z"/>
  <path class="fil7" d="M208.79 77.59c-21,0.81 -40.78,6.36 -58.31,15.61l11.28 20.75c14.34,-7.52 30.5,-12.05 47.64,-12.75l-0.61 -23.61z"/>
  <path class="fil7" d="M133.29 342.66c-19.24,-12.13 -35.57,-28.45 -47.69,-47.7l-20.14 12.34c14.07,22.42 33.08,41.43 55.49,55.51l12.34 -20.15z"/>
  <path class="fil7" d="M100.68 32.37c-27.62,17.28 -51.03,40.69 -68.31,68.32l20.15 12.34c15.33,-24.45 36.05,-45.19 60.5,-60.52l-12.34 -20.14z"/>
 </g>
</svg>
